<?xml version="1.0" encoding="UTF-8"?>
<svg id="Layer_1" data-name="Layer 1" xmlns="http://www.w3.org/2000/svg" viewBox="0 0 371.03 357.56">
  <defs>
    <style>
      .cls-1 {
        fill: #1c1b4d;
      }
    </style>
  </defs>
  <path class="cls-1" d="M166.16,157.15h10.24v9.35h.25c4.04-6.32,10.99-10.87,19.21-10.87s14.28,4.04,17.06,11.63h.25c4.17-7.45,12-11.63,19.96-11.63,11.63,0,19.84,7.45,19.84,20.98v45.87h-10.24v-45.36c0-8.09-5.43-12.89-12-12.89-8.47,0-16.05,7.33-16.05,17.56v40.69h-10.24v-45.36c0-8.09-4.55-12.89-11.25-12.89-7.96,0-16.81,7.33-16.81,17.56v40.69h-10.24v-65.33Z"/>
  <g>
    <path class="cls-1" d="M132.89,207.04c1.34,7.47,6.35,12.62,10.48,11.88,8.1-1.45,22.62-31.34,24.76-37.89.5-1.63,1.19-2.14,2.26-2.33,1.22-.22,2.58.31,2.8,1.56.11.62-.08,1.3-.28,1.98-2.05,7.05-18.49,39.47-29.33,41.41-7.33,1.31-16.19-4.17-19.67-23.6-6.61-36.99,2.85-66.95,19.8-69.99,5.04-.9,10.29,1.12,11.4,7.34,2.36,13.2-8.24,41.18-21.91,66.12,0,0-.74,1.16-.32,3.53ZM131,197.36c11.35-20.28,20.14-46.91,18.01-58.87-.62-3.49-2.37-4.46-4.82-4.02-10.85,1.94-19.85,30.92-14.13,62.93.09.5.46.82.94-.04Z"/>
    <path class="cls-1" d="M141.54,224.49c-3.5,0-6.88-1.52-9.71-4.41-4.06-4.14-6.94-10.84-8.57-19.92-6.52-36.47,2.41-67.55,20.34-70.76,5.19-.93,10.97,1.15,12.17,7.88,2.63,14.72-10.2,45.06-21.98,66.56-.02.04-.61,1.05-.24,3.09h0c1.34,7.47,6.19,11.97,9.71,11.34,7.67-1.37,22.02-30.64,24.24-37.44.52-1.71,1.33-2.52,2.78-2.78,1.52-.27,3.28.44,3.57,2.09.14.78-.09,1.57-.29,2.28-2.17,7.46-18.65,39.88-29.85,41.88-.72.13-1.44.19-2.16.19ZM145.95,130.52c-.72,0-1.43.07-2.12.19-17.19,3.07-25.65,33.48-19.26,69.21,1.58,8.81,4.34,15.28,8.21,19.23,3.96,4.04,8,4.31,10.69,3.83,10.25-1.83,26.52-33.05,28.81-40.94.17-.59.34-1.2.26-1.68-.15-.84-1.15-1.18-2.03-1.02-.82.15-1.32.48-1.74,1.87-1.84,5.65-16.61,36.8-25.28,38.35-4.74.84-9.9-4.84-11.25-12.42h0c-.46-2.55.32-3.86.41-4,15.36-28.03,23.93-53.81,21.82-65.64-.93-5.21-4.81-7-8.51-7ZM130.44,198.55c-.05,0-.11,0-.15-.01-.45-.08-.78-.46-.88-1.03-5.7-31.88,3.3-61.67,14.66-63.7,1.47-.26,2.69-.04,3.61.67,1,.76,1.65,2.03,1.98,3.9,2.29,12.81-7.39,40.21-18.08,59.31h0c-.39.7-.81.88-1.14.88ZM145.22,135.03c-.28,0-.58.03-.91.09-5.03.9-9.92,8.45-12.75,19.7-3.09,12.28-3.43,27.51-.94,41.87,11.95-21.48,19.73-46.93,17.74-58.08-.27-1.5-.76-2.53-1.47-3.07-.44-.33-.99-.5-1.66-.5Z"/>
  </g>
</svg>