<?xml version="1.0" encoding="UTF-8"?><svg id="a" xmlns="http://www.w3.org/2000/svg" width="341.76" height="95.97" viewBox="0 0 341.76 95.97" fill="#000000"><path d="M76.4,60.48h5.41v4.95h.13c2.14-3.34,5.82-5.75,10.16-5.75s7.55,2.14,9.02,6.15h.13c2.21-3.94,6.35-6.15,10.56-6.15,6.15,0,10.49,3.94,10.49,11.1v24.26h-5.41v-24c0-4.28-2.87-6.82-6.35-6.82-4.48,0-8.49,3.88-8.49,9.29v21.52h-5.41v-24c0-4.28-2.41-6.82-5.95-6.82-4.21,0-8.89,3.88-8.89,9.29v21.52h-5.41v-34.56Z"/><path d="M127.53,77.79c0-10.03,6.42-18.18,16.71-18.18s16.64,8.15,16.64,18.18-6.28,18.18-16.64,18.18-16.71-8.15-16.71-18.18ZM155.34,77.79c0-7.62-3.74-13.7-11.1-13.7s-11.16,6.08-11.16,13.7,3.81,13.64,11.16,13.64,11.1-6.02,11.1-13.64Z"/><path d="M171.71,65.02h.13c2.47-3.28,5.95-5.35,10.96-5.35,7.22,0,11.63,3.94,11.63,11.1v24.26h-5.41v-23.79c0-4.48-2.94-7.02-7.82-7.02-5.48,0-9.49,3.88-9.49,9.56v21.25h-5.41v-34.56h5.41v4.55Z"/><path d="M198.72,60.48h5.01v-10.89h5.41v10.89h6.68v4.41h-6.68v22.46c0,2.41,1.27,3.21,3.48,3.21,1.07,0,2.27-.27,2.87-.47h.2v4.68c-1.27.27-2.74.47-4.34.47-4.41,0-7.62-1.8-7.62-6.68v-23.66h-5.01v-4.41Z"/><path d="M242.63,90.22h-.07c-2.07,2.67-5.61,5.48-11.5,5.48-6.55,0-11.7-3.07-11.7-9.62,0-8.15,6.42-9.83,15.04-11.16,4.88-.74,8.29-1.2,8.29-4.95s-2.81-6.08-7.75-6.08c-5.61,0-8.42,2.41-8.62,7.62h-5.21c.2-6.68,4.61-11.7,13.77-11.7,7.35,0,12.77,2.74,12.77,10.96v16.44c0,2.81.67,4.34,3.68,3.68h.2v3.94c-.67.27-1.54.53-2.94.53-3.54,0-5.41-1.6-5.95-5.15ZM242.77,82.27v-5.88c-1.8,1.14-4.95,2.01-7.89,2.54-5.41,1-9.76,1.94-9.76,7.02,0,4.61,3.61,5.61,7.15,5.61,7.22,0,10.49-5.28,10.49-9.29Z"/><path d="M276.66,60.48h5.82l7.15,21.92c1,3.07,2.27,7.29,2.27,7.29h.13s1.27-4.28,2.27-7.29l7.29-21.92h5.61l-12.43,34.56h-6.02l-12.1-34.56Z"/><path d="M308.41,77.79c0-10.03,6.42-18.18,16.71-18.18s16.64,8.15,16.64,18.18-6.28,18.18-16.64,18.18-16.71-8.15-16.71-18.18ZM336.21,77.79c0-7.62-3.74-13.7-11.1-13.7s-11.16,6.08-11.16,13.7,3.81,13.64,11.16,13.64,11.1-6.02,11.1-13.64Z"/><path d="M260.77,85.66c.76,4.24,3.6,7.16,5.94,6.74,4.59-.82,12.83-17.78,14.04-21.49.28-.92.68-1.21,1.28-1.32.69-.12,1.46.18,1.59.88.06.35-.05.74-.16,1.12-1.16,4-10.48,22.38-16.64,23.48-4.16.74-9.18-2.37-11.15-13.38-3.75-20.98,1.61-37.97,11.23-39.69,2.86-.51,5.83.63,6.47,4.17,1.34,7.49-4.67,23.36-12.43,37.5,0,0-.42.66-.18,2ZM259.7,80.16c6.44-11.5,11.42-26.61,10.21-33.39-.35-1.98-1.35-2.53-2.73-2.28-6.15,1.1-11.26,17.54-8.01,35.69.05.28.26.46.53-.02Z"/><path d="M265.66,95.97c-1.53,0-3.03-.48-4.39-1.43-3.07-2.13-5.27-6.53-6.38-12.71-1.81-10.13-1.59-19.88.62-27.44,2.22-7.61,6.22-12.29,11.26-13.19,3.12-.52,6.67.72,7.39,4.82,1.51,8.45-5.79,25.76-12.51,38.02-.02.05-.27.51-.09,1.48h0c.69,3.88,3.24,6.38,5.01,6.09,3.94-.7,12.12-16.97,13.42-20.96.35-1.12.92-1.68,1.9-1.86.63-.09,1.27.02,1.76.35.41.28.67.7.76,1.18.09.53-.05,1.02-.17,1.47-1.01,3.49-10.34,22.83-17.27,24.06-.44.08-.88.12-1.32.12ZM268.21,42.67c-.38,0-.77.04-1.16.11-4.4.79-7.95,5.07-10.01,12.06-2.15,7.33-2.35,16.81-.58,26.71,1.3,7.27,3.82,10.37,5.71,11.68,1.39.97,2.96,1.32,4.51,1.05,5.54-.98,14.76-18.63,16.01-22.92.08-.3.16-.59.13-.76-.23-.24-.45-.27-.66-.23-.26.05-.45.08-.66.77-1.1,3.36-9.48,21.11-14.67,22.04-3.01.48-6.06-2.87-6.87-7.38h0c-.29-1.6.23-2.48.3-2.58,8.52-15.56,13.48-30.41,12.31-36.93-.48-2.68-2.41-3.63-4.38-3.63ZM259.38,81.27c-.05,0-.11,0-.16-.02-.43-.06-.75-.41-.85-.91-3.36-18.84,1.99-35.44,8.66-36.64.89-.17,1.67-.04,2.29.4.7.48,1.15,1.31,1.37,2.53,1.31,7.35-4.21,23.03-10.3,33.92h0c-.33.59-.73.71-1.01.71ZM259.02,79.78l-.04.04.73.34-.69-.38ZM267.77,45.24c-.13,0-.28.02-.44.05-5.03.9-10.37,15.43-7.63,33.23,6.3-11.71,10.49-25.65,9.43-31.6-.13-.76-.37-1.27-.7-1.5-.17-.12-.38-.18-.66-.18Z"/><path d="M0,0h3.39v49.39H0V0Z"/><path d="M33.3,49.39v-5.46h-.14c-2.35,3.45-5.46,6.29-11.47,6.29-6.56,0-11.47-3.94-11.47-11.05V13.68h3.38v25.15c0,5.87,3.39,8.5,8.7,8.5,6.29,0,10.98-4.77,10.98-11.05V13.68h3.39v35.71h-3.39Z"/><path d="M41.87,31.57c0-10.78,5.39-18.65,15.61-18.65,7.46,0,12.64,3.87,13.75,11.05h-3.32c-1.17-5.66-4.84-8.15-10.43-8.15-8.64,0-12.16,7.18-12.16,15.75s3.59,15.75,12.09,15.75c6.22,0,10.29-4.14,11.05-10.02h3.18c-.9,7.74-6.01,12.99-14.23,12.99-10.29,0-15.54-7.94-15.54-18.72Z"/><path d="M76.41,13.68h3.39v35.71h-3.39V13.68ZM80.69,0h4.49l-5.53,8.77h-2.97l4.01-8.77Z"/><path d="M109.57,45.11v-1.24h-.21c-2,2.83-5.6,6.42-12.92,6.42-6.56,0-11.4-3.39-11.4-9.95,0-8.5,6.63-10.22,14.09-10.98,8.43-.83,10.36-1.24,10.36-4.56v-1.24c0-5.39-3.18-7.74-8.98-7.74-6.7,0-10.29,2.76-10.78,8.01h-3.45c.69-6.91,5.32-10.92,14.23-10.92,7.94,0,12.37,3.52,12.37,10.85v21c0,1.93,1.04,2.49,2.28,2.49.48,0,1.04-.14,1.66-.35h.21v2.49c-.55.28-1.38.55-2.76.55-2.76,0-4.7-1.52-4.7-4.84ZM109.5,36.68v-6.63c-2.49,1.24-6.29,1.73-9.95,2.14-6.29.69-11.05,1.52-11.05,8.29,0,5.04,3.73,6.98,8.29,6.98,8.08,0,12.71-5.39,12.71-10.78Z"/></svg>