<?xml version="1.0" encoding="UTF-8"?>
<svg id="Layer_1" data-name="Layer 1" xmlns="http://www.w3.org/2000/svg" viewBox="0 0 371.03 357.56">
  <defs>
    <style>
      .cls-1 {
        letter-spacing: -.02em;
      }

      .cls-2 {
        letter-spacing: .08em;
      }

      .cls-3 {
        font-size: 16.4px;
      }

      .cls-3, .cls-4, .cls-5, .cls-6 {
        fill: #1c1b4d;
      }

      .cls-3, .cls-6 {
        font-family: NHaasGroteskDSPro-55Rg, 'Neue Haas Grotesk Display Pro';
      }

      .cls-4 {
        font-family: NHaasGroteskDSPro-35XLt, 'Neue Haas Grotesk Display Pro';
        font-size: 56px;
      }

      .cls-7 {
        letter-spacing: 0em;
      }

      .cls-8 {
        letter-spacing: 0em;
      }

      .cls-9 {
        letter-spacing: .06em;
      }

      .cls-10 {
        letter-spacing: .07em;
      }

      .cls-6 {
        font-size: 54.18px;
      }

      .cls-11 {
        letter-spacing: -.04em;
      }

      .cls-12 {
        letter-spacing: -.05em;
      }
    </style>
  </defs>
  <text class="cls-6" transform="translate(106.24 215.34)"><tspan x="0" y="0">mo</tspan><tspan class="cls-8" x="72.88" y="0">n</tspan><tspan x="100.94" y="0">t</tspan><tspan class="cls-12" x="117.58" y="0">a</tspan><tspan x="142.5" y="0"> </tspan><tspan class="cls-11" x="151.12" y="0"> </tspan><tspan class="cls-1" x="157.84" y="0"> </tspan><tspan class="cls-7" x="165.21" y="0">v</tspan><tspan x="189.64" y="0">o</tspan></text>
  <g>
    <path class="cls-5" d="M258.68,207.74c.61,3.44,2.92,5.8,4.82,5.46,3.72-.67,10.4-14.41,11.38-17.42.23-.75.55-.98,1.04-1.07.56-.1,1.19.14,1.29.72.05.29-.04.6-.13.91-.94,3.24-8.5,18.15-13.49,19.04-3.37.6-7.44-1.92-9.04-10.85-3.04-17,1.31-30.78,9.1-32.18,2.32-.41,4.73.51,5.24,3.38,1.08,6.07-3.79,18.93-10.07,30.4,0,0-.34.53-.15,1.62ZM257.81,203.29c5.22-9.32,9.26-21.57,8.28-27.06-.29-1.6-1.09-2.05-2.21-1.85-4.99.89-9.13,14.22-6.49,28.93.04.23.21.38.43-.02Z"/>
    <path class="cls-5" d="M262.67,215.88c-3.31,0-7.04-2.92-8.54-11.28-3.01-16.83,1.14-31.19,9.45-32.67,2.45-.43,5.17.54,5.74,3.72,1.22,6.8-4.69,20.78-10.12,30.68-.02.03-.26.46-.1,1.34h0c.58,3.27,2.75,5.4,4.32,5.12,3.33-.6,9.95-13.77,11.05-17.13.25-.82.66-1.23,1.37-1.36.76-.13,1.63.22,1.78,1.06.07.38-.04.76-.14,1.1-1,3.44-8.63,18.41-13.82,19.34-.33.06-.66.09-1,.09ZM264.68,172.68c-.32,0-.64.03-.95.08-7.71,1.38-11.64,15.59-8.76,31.68,1.54,8.6,5.43,11.07,8.55,10.5,4.57-.82,12.13-15.24,13.15-18.74.07-.26.15-.53.12-.71-.06-.34-.5-.42-.79-.37-.29.05-.51.14-.71.78-.88,2.71-7.61,16.98-11.71,17.72-2.25.42-4.68-2.26-5.31-5.81-.22-1.22.16-1.86.2-1.92,7.05-12.86,10.98-24.68,10.01-30.09-.42-2.32-2.14-3.12-3.8-3.12ZM257.55,203.96s-.06,0-.09,0c-.25-.04-.45-.26-.5-.57-2.71-15.14,1.53-28.48,6.84-29.43,1.03-.19,2.33.05,2.71,2.19,1.06,5.92-3.4,18.55-8.33,27.35-.21.37-.44.46-.63.46ZM264.36,174.75c-.14,0-.27.02-.41.04-4.73.85-8.54,14.03-6.26,27.83,5.39-9.79,8.88-21.27,7.97-26.32-.22-1.25-.73-1.55-1.3-1.55Z"/>
  </g>
  <text class="cls-4" transform="translate(44.32 174.86)"><tspan x="0" y="0">lucía</tspan></text>
  <text class="cls-3" transform="translate(109.58 235.38)"><tspan class="cls-2" x="0" y="0">g</tspan><tspan class="cls-9" x="10.14" y="0">r</tspan><tspan class="cls-10" x="16.67" y="0">aphic design</tspan></text>
</svg>