<?xml version="1.0" encoding="UTF-8"?>
<svg id="Layer_1" data-name="Layer 1" xmlns="http://www.w3.org/2000/svg" viewBox="0 0 371.03 357.56">
  <defs>
    <style>
      .cls-1 {
        stroke: #000;
        stroke-miterlimit: 10;
        stroke-width: .85px;
      }
    </style>
  </defs>
  <g>
    <path d="M105.92,188.96h4.39v4.01h.11c1.73-2.71,4.71-4.66,8.24-4.66s6.12,1.73,7.31,4.98h.11c1.79-3.2,5.15-4.98,8.56-4.98,4.98,0,8.51,3.2,8.51,8.99v19.67h-4.39v-19.45c0-3.47-2.33-5.53-5.15-5.53-3.63,0-6.88,3.14-6.88,7.53v17.45h-4.39v-19.45c0-3.47-1.95-5.53-4.82-5.53-3.41,0-7.21,3.14-7.21,7.53v17.45h-4.39v-28.01Z"/>
    <path d="M147.37,203c0-8.13,5.2-14.74,13.55-14.74s13.49,6.61,13.49,14.74-5.09,14.74-13.49,14.74-13.55-6.61-13.55-14.74ZM169.92,203c0-6.18-3.03-11.11-8.99-11.11s-9.05,4.93-9.05,11.11,3.09,11.05,9.05,11.05,8.99-4.88,8.99-11.05Z"/>
    <path d="M183.19,192.65h.11c2-2.66,4.82-4.33,8.89-4.33,5.85,0,9.43,3.2,9.43,8.99v19.67h-4.39v-19.29c0-3.63-2.38-5.69-6.34-5.69-4.44,0-7.69,3.14-7.69,7.75v17.23h-4.39v-28.01h4.39v3.68Z"/>
    <path d="M205.08,188.96h4.06v-8.83h4.39v8.83h5.42v3.58h-5.42v18.21c0,1.95,1.03,2.6,2.82,2.6.87,0,1.84-.22,2.33-.38h.16v3.79c-1.03.22-2.22.38-3.52.38-3.58,0-6.18-1.46-6.18-5.42v-19.18h-4.06v-3.58Z"/>
    <path d="M240.68,213.08h-.05c-1.68,2.17-4.55,4.44-9.32,4.44-5.31,0-9.48-2.49-9.48-7.8,0-6.61,5.2-7.96,12.19-9.05,3.96-.6,6.72-.98,6.72-4.01s-2.28-4.93-6.29-4.93c-4.55,0-6.83,1.95-6.99,6.18h-4.23c.16-5.42,3.74-9.48,11.16-9.48,5.96,0,10.35,2.22,10.35,8.89v13.33c0,2.28.54,3.52,2.98,2.98h.16v3.2c-.54.22-1.25.43-2.38.43-2.87,0-4.39-1.3-4.82-4.17ZM240.79,206.63v-4.77c-1.46.92-4.01,1.62-6.39,2.06-4.39.81-7.91,1.57-7.91,5.69,0,3.74,2.93,4.55,5.8,4.55,5.85,0,8.51-4.28,8.51-7.53Z"/>
    <path d="M268.26,188.96h4.71l5.8,17.77c.81,2.49,1.84,5.91,1.84,5.91h.11s1.03-3.47,1.84-5.91l5.91-17.77h4.55l-10.08,28.01h-4.88l-9.81-28.01Z"/>
    <path d="M294,203c0-8.13,5.2-14.74,13.55-14.74s13.49,6.61,13.49,14.74-5.09,14.74-13.49,14.74-13.55-6.61-13.55-14.74ZM316.54,203c0-6.18-3.03-11.11-8.99-11.11s-9.05,4.93-9.05,11.11,3.09,11.05,9.05,11.05,8.99-4.88,8.99-11.05Z"/>
  </g>
  <path class="cls-1" d="M255.38,209.38c.61,3.44,2.92,5.8,4.82,5.46,3.72-.67,10.4-14.41,11.38-17.42.23-.75.55-.98,1.04-1.07.56-.1,1.19.14,1.29.72.05.29-.04.6-.13.91-.94,3.24-8.5,18.15-13.49,19.04-3.37.6-7.44-1.92-9.04-10.85-3.04-17,1.31-30.78,9.1-32.18,2.32-.41,4.73.51,5.24,3.38,1.08,6.07-3.79,18.93-10.07,30.4,0,0-.34.53-.15,1.62ZM254.51,204.92c5.22-9.32,9.26-21.57,8.28-27.06-.29-1.6-1.09-2.05-2.21-1.85-4.99.89-9.13,14.22-6.49,28.93.04.23.21.38.43-.02Z"/>
  <g>
    <path d="M43.99,136.46h2.74v40.04h-2.74v-40.04Z"/>
    <path d="M70.99,176.5v-4.42h-.11c-1.9,2.8-4.42,5.1-9.3,5.1-5.32,0-9.3-3.19-9.3-8.96v-20.66h2.74v20.38c0,4.76,2.74,6.89,7.06,6.89,5.1,0,8.9-3.86,8.9-8.96v-18.31h2.74v28.95h-2.74Z"/>
    <path d="M77.93,162.05c0-8.74,4.37-15.12,12.66-15.12,6.05,0,10.25,3.14,11.14,8.96h-2.69c-.95-4.59-3.92-6.61-8.46-6.61-7,0-9.86,5.82-9.86,12.77s2.91,12.77,9.8,12.77c5.04,0,8.34-3.36,8.96-8.12h2.58c-.73,6.27-4.87,10.53-11.54,10.53-8.34,0-12.6-6.44-12.6-15.18Z"/>
    <path d="M105.93,147.55h2.74v28.95h-2.74v-28.95ZM109.4,136.46h3.64l-4.48,7.11h-2.41l3.25-7.11Z"/>
    <path d="M132.81,173.03v-1.01h-.17c-1.62,2.3-4.54,5.21-10.47,5.21-5.32,0-9.24-2.74-9.24-8.06,0-6.89,5.38-8.29,11.42-8.9,6.83-.67,8.4-1.01,8.4-3.7v-1.01c0-4.37-2.58-6.27-7.28-6.27-5.43,0-8.34,2.24-8.74,6.5h-2.8c.56-5.6,4.31-8.85,11.54-8.85,6.44,0,10.02,2.86,10.02,8.79v17.02c0,1.57.84,2.02,1.85,2.02.39,0,.84-.11,1.34-.28h.17v2.02c-.45.22-1.12.45-2.24.45-2.24,0-3.81-1.23-3.81-3.92ZM132.75,166.2v-5.38c-2.02,1.01-5.1,1.4-8.06,1.74-5.1.56-8.96,1.23-8.96,6.72,0,4.09,3.02,5.66,6.72,5.66,6.55,0,10.3-4.37,10.3-8.74Z"/>
  </g>
  <g>
    <path d="M106.97,237.49h1.23c.13.94,1.02,1.3,2.33,1.3,1.56,0,2.43-.71,2.43-2.18v-1.2h-.03c-.62.8-1.3,1.31-2.51,1.31-2.2,0-3.71-1.76-3.71-4.2,0-2.64,1.66-4.18,3.63-4.18,1.23,0,2.02.48,2.59,1.28h.03v-1.08h1.33v8.02c0,2.23-1.48,3.28-3.72,3.28s-3.44-.89-3.59-2.35ZM113.06,232.45c0-1.85-.79-3-2.59-3-1.59,0-2.39,1.25-2.39,3.08s.84,3.07,2.41,3.07c1.95,0,2.58-1.36,2.58-3.15Z"/>
    <path d="M118.65,229.94h.03c.51-.82,1.39-1.51,2.53-1.51.25,0,.38.03.54.1v1.28h-.05c-.2-.07-.33-.08-.59-.08-1.31,0-2.46.98-2.46,2.58v4.71h-1.33v-8.48h1.33v1.41Z"/>
    <path d="M129.05,235.83h-.02c-.51.66-1.38,1.34-2.82,1.34-1.61,0-2.87-.75-2.87-2.36,0-2,1.57-2.41,3.69-2.74,1.2-.18,2.03-.29,2.03-1.21s-.69-1.49-1.9-1.49c-1.38,0-2.07.59-2.12,1.87h-1.28c.05-1.64,1.13-2.87,3.38-2.87,1.8,0,3.13.67,3.13,2.69v4.04c0,.69.16,1.07.9.9h.05v.97c-.16.07-.38.13-.72.13-.87,0-1.33-.39-1.46-1.26ZM129.08,233.88v-1.44c-.44.28-1.21.49-1.94.62-1.33.25-2.4.48-2.4,1.72,0,1.13.89,1.38,1.76,1.38,1.77,0,2.58-1.3,2.58-2.28Z"/>
    <path d="M133.45,228.53h1.33v1.2h.03c.64-.87,1.49-1.39,2.72-1.39,2.15,0,3.64,1.64,3.64,4.46s-1.39,4.46-3.69,4.46c-1.15,0-1.97-.34-2.67-1.25h-.03v3.72h-1.33v-11.2ZM139.81,232.81c0-1.9-.8-3.35-2.41-3.35-1.85,0-2.71,1.51-2.71,3.35s.74,3.33,2.69,3.33c1.62,0,2.43-1.41,2.43-3.33Z"/>
    <path d="M145.06,229.65h.03c.61-.8,1.46-1.31,2.69-1.31,1.77,0,2.85.97,2.85,2.72v5.95h-1.33v-5.84c0-1.1-.72-1.72-1.92-1.72-1.35,0-2.33.95-2.33,2.35v5.22h-1.33v-11.73h1.33v4.36Z"/>
    <path d="M153.63,225.28h1.33v1.64h-1.33v-1.64ZM153.63,228.53h1.33v8.48h-1.33v-8.48Z"/>
    <path d="M157.51,232.78c0-2.46,1.57-4.46,4.1-4.46,2,0,3.33,1.15,3.62,2.95h-1.35c-.2-1.15-1-1.85-2.28-1.85-1.8,0-2.74,1.49-2.74,3.36s.94,3.35,2.74,3.35c1.38,0,2.2-.79,2.31-2.1h1.31c-.18,2.03-1.51,3.21-3.62,3.21-2.53,0-4.1-2-4.1-4.46Z"/>
    <path d="M171.1,232.8c0-2.82,1.62-4.46,3.72-4.46,1.2,0,2.12.59,2.66,1.39h.03v-4.45h1.33v11.73h-1.33v-1.03h-.03c-.64.82-1.43,1.28-2.62,1.28-2.31,0-3.76-1.74-3.76-4.46ZM177.59,232.81c0-1.97-.95-3.35-2.71-3.35-1.61,0-2.43,1.44-2.43,3.35s.82,3.33,2.44,3.33c1.89,0,2.69-1.41,2.69-3.33Z"/>
    <path d="M181.4,232.78c0-2.46,1.61-4.46,4.02-4.46,2.54,0,3.9,1.97,3.9,4.77h-6.56c.1,1.72,1.03,3.03,2.74,3.03,1.23,0,2.05-.59,2.35-1.74h1.3c-.39,1.82-1.72,2.85-3.64,2.85-2.59,0-4.1-2-4.1-4.46ZM182.79,232.09h5.1c-.08-1.69-.95-2.72-2.48-2.72s-2.43,1.18-2.62,2.72Z"/>
    <path d="M191.31,234.26h1.36c.18,1.48,1.17,1.89,2.43,1.89,1.39,0,1.97-.61,1.97-1.39,0-.95-.66-1.2-2.21-1.53-1.67-.34-3.17-.69-3.17-2.54,0-1.41,1.08-2.33,3.05-2.33,2.1,0,3.13,1,3.33,2.66h-1.36c-.13-1.12-.74-1.61-2-1.61s-1.71.54-1.71,1.21c0,.92.82,1.1,2.28,1.39,1.71.34,3.13.72,3.13,2.67,0,1.71-1.39,2.58-3.35,2.58-2.33,0-3.62-1.1-3.76-3Z"/>
    <path d="M200.92,225.28h1.33v1.64h-1.33v-1.64ZM200.92,228.53h1.33v8.48h-1.33v-8.48Z"/>
    <path d="M205.07,237.49h1.23c.13.94,1.02,1.3,2.33,1.3,1.56,0,2.43-.71,2.43-2.18v-1.2h-.03c-.62.8-1.3,1.31-2.51,1.31-2.2,0-3.71-1.76-3.71-4.2,0-2.64,1.66-4.18,3.63-4.18,1.23,0,2.02.48,2.59,1.28h.03v-1.08h1.33v8.02c0,2.23-1.48,3.28-3.72,3.28s-3.44-.89-3.59-2.35ZM211.15,232.45c0-1.85-.79-3-2.59-3-1.59,0-2.39,1.25-2.39,3.08s.84,3.07,2.41,3.07c1.95,0,2.58-1.36,2.58-3.15Z"/>
    <path d="M216.75,229.65h.03c.61-.8,1.46-1.31,2.69-1.31,1.77,0,2.85.97,2.85,2.72v5.95h-1.33v-5.84c0-1.1-.72-1.72-1.92-1.72-1.35,0-2.33.95-2.33,2.35v5.22h-1.33v-8.48h1.33v1.12Z"/>
  </g>
</svg>