<?xml version="1.0" encoding="UTF-8"?><svg id="a" xmlns="http://www.w3.org/2000/svg" width="467.71" height="407.62" xmlns:xlink="http://www.w3.org/1999/xlink" viewBox="0 0 467.71 407.62"><defs><clipPath id="b"><rect x="76.63" y="-19.91" width="235.7" height="396.64" fill="none"/></clipPath></defs><g clip-path="url(#b)"><path d="M259.53,83.01c14.19,16.01,31.39,29.55,42.22,48.62l3.61,9.23s-.05-.04-.08-.05c.5.74.65,1.49.56,2.19l3.98,3.28c.33-.26.74-.47,1.24-.61l-.12-.1c3.89-4.09-1.8-10.15-3.38-14.41-10.43-28.04-12.03-54.61-33.16-79.26-3.99-4.66-7.06-6.53-13.13-6.03-9.77.8-15.53,7.26-14.63,17.06.82,8.92,7.55,14.06,12.89,20.08ZM292.87,98.35c.34,1.02,1.5,1.08-.07,2.3l-8.25-12.73c5.23-.77,6.98,6.48,8.32,10.43ZM280.57,75.11l5.22,9.1c-4.27-2.56-5.54-7.38-9.11-10.59,1.18-2.27,2.69.62,3.9,1.49ZM257.17,71.33c1.99,1.32,8.67,9.75,10.04,12.08.5.85,1.31,1.74.7,2.77l-12.52-14.44c-.27-1.44.95-.96,1.78-.41Z" fill="#514dff"/><path d="M189.76,79.94c.35,1.21,3.24,9.14,3.72,10.01,4.27,7.64,12.7,10.86,20.43,13.78,20.23,7.63,43.61,9.52,62.02,20.98,2.03,1.26,11.48,9.18,13.3,11.01,1.68,1.7,5.1,11.97,8.46,8.64.29-.29.49-.58.61-.88-1.61-2.68-2.26-5.78-3.72-8.57-1.39-2.66-3.03-5.31-4.76-7.81-.77-.84-1.54-1.69-2.32-2.55-8.25-9.18-15.51-16.93-24.42-25.32-13.06-12.33-24.96-23.74-40.85-32.52-1.18-.65-13.29-4.36-14.01-4.23-.95.17-2.61,1.94-4.06,2.28-1.01.24-2.04-.47-3.23-.12-4.86,1.45-12.77,9.85-11.18,15.31ZM233.44,102.97c2.6,1.04,5.42,1.87,7.76,3.45-2.89.86-8.46-1.36-10.09-3.82.55-.92,1.59.08,2.33.38ZM216.13,70.83c-1.45.76-9.88-.77-9.93-1.77,2.52-3.38,7.52-.38,9.93,1.77Z" fill="#514dff"/><path d="M366.79,181.84c-.71.23-1.5.22-2.31.15-1.73.3-3.41.92-5.12,1.3-.08.13-.16.25-.23.4l-.4-.26c-.93.19-1.79.34-2.61.51.06.07.12.13.17.2l-6.12,2.29c-2.26,1.3-4.83,2.37-7.44,2.79l-.2.08c-2.33,1.56.11,4.19,2.43,4.35,1.98.14,3.92-2.54,5.44.71,1.54-2.1,9.77-4.77,13.2-4.37,1.64-.34,3.42-.38,5.23-.24,1.54-.88,3.53.05,5.19-.11,10.96-1.02,24.42-.58,35.22,2.1,9.09,2.26,23.38,7.68,32.76,6.69.29-.03.59-.08.9-.13,4.5-2.84,9.56-4.66,13.45-8.54,3.28-3.27,7.74-9.15,5.71-13.98-1.27-3.02-3.99-5.03-6.39-7.13-.96-.84-1.88-1.68-2.86-2.42-2.38-1.08-6.51-1.4-9.77-2.29l-1.05-.83c-.46-.06-.92-.11-1.37-.17l.35.29c-.22-.1-.43-.21-.63-.32-.79-.1-1.58-.22-2.37-.35-3.65.31-7.29.44-10.89,1.3-20.1,4.78-40.71,11.6-60.28,17.98ZM445.49,181.27c1.14.11,7.53.37,7.58,1.16-2.86,2.85-7.03,1.36-9.84-.74.95-1.82,1.3-.52,2.26-.42Z" fill="#514dff"/><path d="M425.94,150.42c7.7-4.09,19.61-5.05,25.4-11.88,4.97-5.86,1-18.32-3.77-23.45-.68-.74-1.37-1.24-2.01-1.64-.64-.03-1.3-.24-1.93-.67-1.05-.71-3.51-.72-4.81-1.12-1.74-.54-3.46-1.11-5.24-1.5-2.96-.66-5.55-.44-8.28-.12-4.72,1.67-10.25,4.05-12.48,5.54-3.49,2.34-7.39,7.09-11.17,10.11-1.75,1.3-2.29,1.95-3.36,2.88l19.96,15.78-19.96-15.78c-.18.09-.57.52-.75.61l-.57.32c-.5.59-5.6,3.07-7.38,4.53-4.51,3.69-15.43,12.37-18.78,16.2-3.07,3.5-6.16,9.37-9.19,13.12-3.13,3.87-6.19,7.01-9.71,10.11-1.45,1.72-2.96,3.67-4.97,4.71l-6.08,6.21.99.59c1.87-.27,3.54-1.12,5.19-2.07.2-.47.62-.84,1.32-.99.22-.05.44-.11.66-.17,1.28-.74,2.58-1.42,4-1.83.13-.04.26-.06.39-.09.4-.2.8-.39,1.21-.57,1.83-.81,3.7-1.53,5.6-2.14,18.44-14.36,36.34-19.59,59.26-24.23,1.58-.32,4.7-1.9,5.51-1.92.23-.14.47-.28.72-.41M442.62,136.38c.92,1.52.16,2.1-1.02,2.95-3.32,2.4-14.5,5.19-18.88,5.88,6.48-3.15,13.95-4.79,19.9-8.84ZM415.06,122.82l-1.98-1.04c-.07-.52,7.92-4.58,9.11-5.12.96-.44,2.81-1.66,3.77-1.08l-10.9,7.25Z" fill="#514dff"/><path d="M346.28,156.35c-1.72,2.73-3.89,5.13-5.86,7.68-1.65,3.74-3.7,7.26-5.69,10.86-.17.3-.37.54-.6.72-.71,1.66-1.02,3.17-.13,3.93,3.13,2.68,5.25-3.54,7.38-5.74.6-.9,1.21-1.81,1.81-2.71l-.34-.28c.79-.84,1.54-1.7,2.27-2.57.09-.13.17-.25.26-.38.14-.21.3-.36.47-.49,6.51-7.98,11.09-17.04,18.16-24.83,3.43-3.78,9.02-9.34,12.89-12.66,1.35-1.16,10.82-7.15,13.05-7.93l-22.86-18.07c-.33,1.29-.44,2.7-.94,3.94-6.63,16.26-10.21,33.26-19.84,48.52Z" fill="#514dff"/><path d="M320.61,96.58c-.14,1.05.9,2.57.81,4.06-.2,3.4-2.13,7.37-2.29,9.98-.52,8.42,7.77,19.57,9.97,27.54.32,1.15.61,4.13.83,7.22.56,2.32.83,4.67.99,7.1.13,1.96.18,3.92.16,5.89,0,.06,0,.13,0,.19.3,1.91.5,3.84.69,5.77l1.28,1.06c1.46-.8,2.98-4.38,3.37-5.36.62-1.59,1.11-3.24,1.75-4.82,1.61-17.96,11.72-31.41,15.87-49.5,1.4-6.1-.59-4.5-2.75-7.5-3.65-5.06-4.61-8.96-10.47-12.85-6.74-4.47-19.23,3.79-20.21,11.21Z" fill="#514dff"/><path d="M431.33,209.69c-6.43-4.63-19.9-6.21-27.85-6.46-3.69-.12-15.5,1.26-20.48,0-2.24.2-4.32-.51-6.47-1.24-3.34-.12-6.71-1.57-9.94-2.29-1.3-.29-2.72.29-4.13-.06-2.04-.51-4.71-2.7-6.79-2.76-1.39-.04-2.28,1.37-3.64,1.22-.88-.1-6.11-2.35-6.63-2.25,1,4.66-7.21,3.69-4.74,8.4,1.12.95,7.24-.8,9.24-.64,21.3,1.72,41.89,23.25,64.04,26.66l.07.06c.89.08,1.79.16,2.68.29.91.13,1.81.28,2.72.4.32.04.67.05.99.11.02-.02.04-.03.06-.05.01,0,.03-.01.04-.02.64-.41,1.43-.49,2.2-.35,3.2-.64,7.19-1.22,8.15-1.67,11.14-5.22,9.26-13.04.48-19.37ZM432.07,218.39l1.46,2.76c-.81,1.29-.68.96-1.73.64-1.82-.56-3.71-1.6-5.58-2.11l5.85-1.28Z" fill="#514dff"/><path d="M403.58,90.31c-1.79-2.15-5.64-5.27-8.29-6.11-7.58-2.4-13.78,2.55-14.68,3.31-7.23,6.06-12.37,13.09-13.55,16.38l22.84,18.05h0c1.48-.87,2.87-1.89,4.16-3.03,8.27-7.3,18.25-18.11,9.51-28.6ZM389.08,115.49c-.86.48-1.7,1.36-2.77.72l13.81-14.01c.1,5.4-6.65,10.89-11.03,13.3Z" fill="#514dff"/><path d="M347.51,264.24c4.43.3,9.53,4.08,12.19,4.15.13,0,.19-1.09,1.15-1.23,6.63-.98,17.11,6.11,22.88,8.15,2.48.88,6.99-.13,8.13,3.49-.66,4.62-13.7,5.12-17.64,6.34-10.18,3.17-39.83,21.51-48.17,28.76-5.35,4.65-6.88,8.8-10.88,13.51-1.43,1.68-5.79,6.09-7.55,7.04-4.31,2.3-9.81-.21-13.18-3.08-8.11-6.93-9.66-28.2-2.93-36.44,3.09-3.78,14.38-15.33,18.11-17.98,7.36-5.22,28.94-13.3,37.88-12.71ZM300.79,329.01c5.25,5.42,8.52-2.47,12.36-5.65-1.3-1.28-.83-.94-1.8-.1-2.26,1.98-4.3,4.41-6.72,6.23l-2.13-.87.86-2.13-2.57,2.53ZM301.63,321.2c-2.68-2.1-5.36,2.11-4.49,4.74,2.76.06,3.48-2.85,4.49-4.74ZM367.88,273.79c-.5.02-5.41,1.78-5.16,3,3.65.22,7.34-.62,10.98-1.14-1.27-.35-4.95-1.9-5.82-1.86Z" fill="#514dff"/><path d="M215.64,240.19c4.75-1,4.6-4.67,12.81-4.23,9.02.49,37.72,10.54,45.09,15.62,2.39,1.65,14.18,11.49,13.49,13.86-1.19,1.94-1.32,1.23-2.82.05-1.64,3.54-5.43.1-7.5-.19-.93-.13-3.03.84-4.57.87-25.3.39-46.59,10.55-69.5,20.08l.87,1.19c-1.19,2.49-2.21.79-3.76,1.03-4.07.63-12.24,2.63-15.93.87-7.51-3.58-11.4-15.04-6.9-22.15,4.19-6.61,13.6-18.12,19.73-22.81,1.19-.91,11.18-4.44,12.52-4.53,1.6-.11,4.08.82,6.46.32ZM183.38,283.66c7.43,4.22,10.29.42,1.36-2.12l-1.03.07-.33,2.05ZM196.11,284.97l2.87.45,12.62-6.35c-.82-1.01-1.82-.74-2.87-.46-1.49.41-12.64,5.61-12.62,6.36ZM188.68,263.41c-1.97,1.74-2.46,4.36-3.32,6.7,2.72-.34,6.85-4.72,3.32-6.7ZM211.69,242.28c-1.25.22-10.45,4.11-11.7,4.98-3.18,2.21-5.97,6.04-8.82,8.73,1.16.69,1.9-.35,2.76-.86,5.67-3.35,13.73-7.35,18.68-11.17.46-.35.88-.67,1.19-1.17,0-.11-1.78-.58-2.11-.52ZM226.11,260.87c1.35,1.65,1.26.33,2.28-.17,3.07-1.51,6.2-2.76,9.2-4.38-.11-2.6-11.12,2.86-11.47,4.54ZM225.8,244.41c.38,1.47,10.22-.78,10.14-1.86l-8.44-2.37-1.7,4.23ZM256.27,257.9c-.08-1.35-8.65-.47-9.12,1.78,1.27.57,9.19-.62,9.12-1.78ZM260.07,260.17c1.64,1.88,3.49-.36,4.84-.58,1.89-.3,3.97,1.68,5.39-.26l-8.93-1.73-1.3,2.57ZM253.73,251.92l2.95,1.41,13.76,1.35c-4.43-3.88-11.35-5.91-16.71-2.76Z" fill="#514dff"/><path d="M348.43,357.74c-.38.15-4.24.35-4.87.22-4.81-.99-7.3-4.83-9.65-8.71-12.98-21.38-.48-33.96,16.46-46.91,13.73-10.5,28.26-12.42,44.76-13.75,1.95-.16,5.21-2.36,6.96-.9,5.1,4.27-7.42,6.18-9.02,7.2-14.14,9.05-23.11,17.88-30.87,32.98-3.67,7.14-4.72,18.7-8.21,24.38-1.44,2.35-2.86,4.42-5.54,5.5ZM335.06,339.11c-.17,3.37,2.35,6.89,4.86,8.87l-.4-7.95c-1.76,1.04-2.89.28-4.46-.92ZM333.12,327.92c.93.81.93,1.33,1.73.12,1.54-2.34,4.44-6.08,3.75-8.82l-5.48,8.69ZM353.05,328.84c.03.2-.96,2.82-1.09,3.99-.09.81-.31,2.68.94.96.53-3.47,2.43-6.43,3.65-9.6.45-1.16,1.54-1.24-.22-2.27-.25,1.76-4.75,5.16-4.7,5.53.03.21,1.3.72,1.42,1.4ZM365.02,308.3c-5.73.55-10.12,6.16-13.57,10.4,1.22.71,1.9-.37,2.75-.95,3.62-2.46,7.83-6.27,10.82-9.44Z" fill="#514dff"/><path d="M248.82,134.95c-7.5-.18-14.35.39-21.75,1.96-10.19,2.17-36.11,12.81-44.59,9.46-10.41-4.1-13.33-16.19-2.29-21.71,2.15-1.07,4.04-.53,6.09-1.18,8.53-2.7,8.47-3.7,18.16-4.9,23.84-2.94,32.18-2.45,54.28,8.22,6.23,3.01,23.12,11.31,27.58,15.45,1.43,1.33,5.26,7.83.51,6.65-6.37-3.42-12.71-8.03-19.43-10.74-6.26-2.52-12.23-3.07-18.56-3.22ZM187.83,133.06c-.08-1.12-13.56-.57-8.96,4.63,2.31,2.61,3.9-1.38,5.76-2.88.97-.78,2.49-.53,3.2-1.76ZM215.35,135.46c-.83-1.13-1.81-.54-2.87-.55-1.97-.01-13.4.82-13.42,2.91,5.55,2.87,10.64-1.25,16.29-2.36Z" fill="#514dff"/><path d="M107.77,221.55c-.51-1.52-4.31-1.53-4.03-3.53.18-1.29,2.28-2.95,3.06-4.37,1.96-3.54,4.19-8.62,6.43-11.86,6.85-9.9,35.58-19.62,47.61-22.3s22.49-.38,34.06-.84c3.73,1.63,5.5,3.78,1.84,6.74-4.13-3.77-5.72-.76-8.99.37-11.77,4.07-20.2,6.3-30.24,14.75s-19.26,17.17-28.83,25.66c-5.27,4.67-6.81,6.48-13.61,3.79-2.58-1.02-5.9-2.64-7.44-5.05-.92-1.44.29-2.91.13-3.37ZM112.2,223.25l5.71,3.41,1.16-1.4c.04-.46-3.65,1.09-3.67-3.08-.01-2.43,2.21-2.02,1.79-4.24l-4.98,5.3ZM111.46,214.04l2.35.4,5.89-6.75c-4.11-2.24-5.62,4.3-8.24,6.34ZM121.01,217.38c.21,1.63,1.05.71,1.79.08,5.21-4.38,11.14-7.89,16.26-12.38-3.13-2.18-5.13,2.16-7.17,3.67s-11.13,6.72-10.89,8.63ZM135.38,191.46c0,1.64-9.33,1.67-8.04,5.55l9-4.31.66-3.69-4.21,2.16,2.59.29ZM172.08,180.05c-3.8.36-9.16,1.62-12.61,3.27,4.93.85,9.17-2.02,14.02-1.93,1.61-1.2-1.01-1.37-1.41-1.34Z" fill="#514dff"/><path d="M279.36,186.94l1.1.93.66-1.34c6.54,6.17,7.25,16.68,10.06,24.95,2.2,6.46,8.08,17.46,7.69,24.12-.63,10.69-4.58,8.54-9.53,1.29-2.96-4.34-2.05-6.78-4.02-11.01-5.21-11.21-18.73-19.36-29.34-25.16-8.31-4.54-18.59-5.91-20.89-16.62-2.46-11.48,7.33-13.66,16.36-13.64,7.58.01,15.59,1.81,21.7,6.54,2.34,1.81,8.48,7.16,6.21,9.94ZM242.91,176.2c-2.38.81-3.82,5.58-1.96,7.68,2.83-1.24,3.85-4.1,5.94-5.87,1.08-.91,2.48-.32,3.24-1.58-1.52.82-6.88-.35-7.23-.23ZM274.43,188.86c.49,5.43,4,4.18,6.79,8.23l-3.9-7.68-3.08-2.05c-.88.64.14.83.2,1.5Z" fill="#514dff"/><path d="M276.49,283.85c.09-.07.92.61,1.34.29.88-.69,1.35-1.96,2.17-2.55,1.09-.78,6.28-.24,6.06,2.49-.15,1.92-5.72,5.3-7.24,7.41-4.28,5.93-5.09,20.11-2.73,26.91,2.15,6.21,7.31,13.16,11.83,17.85l-3.06.24,9.41,7.99-.72-2.5c9.89,6.14,10.36,21.02-3.05,22.63-7.49.9-6.44-2.33-11.8-5.64-2.31-1.43-6.12-1.6-8.58-3.48-12.41-9.51-20.83-35.63-13.21-49.96,2.9-5.45,14.6-17.71,19.59-21.68ZM269.86,348.54c3.42,2.5,7.24,5.87,10.72,8.16,1.12.74.75.93,1.76-.41-4.04-2.78-7.52-5.87-9.1-10.59l-3.38,2.85ZM260.3,326.12c2.58,3.73,1.38,9.42,5.65,12.43.68-5.48-2.84-8.65-4.45-13.29l-1.2.87ZM278.32,338.57c2.21,3.41,1.68,4.11,5.86,5.23,1.08.29,1.22,1.63,2.27-.22-2.18-1.55-4.18-3.99-6.37-5.42-.84-.55-1.95-1.07-1.76.4Z" fill="#514dff"/><path d="M222.68,200.07c.87-.08,16.22,2.89,17.02,3.23,22.41,9.43,30.48,21.83,44.07,40.24,2.78,3.76-1.04,5.42-3.35,4.21-1.01-.53-2.36-3.01-3.9-4.18-8.2-6.22-30.01-13.41-40.36-14.17-8.01-.59-27.73,2.61-33.56-2-6.18-4.88-7.19-11.2-2.07-17.33,1.17-1.4,6.39-6.44,7.7-7.24,2.32-1.41,9.45-1.23,12.27-1.52.85-.09,1.6-1.19,2.2-1.24ZM203.3,221.49c5.95,6.48,13.46,3.44,20.62,3.22,2.45-.08,6.13,1.92,8.46-.44-3.01-.47-6.04-.91-9.1-1.03-2.82-.11-8.46.74-10.85.21s-4.89-4.43-9.13-1.97ZM206.95,209.34c-.81.11-6.68,8.34-3.82,10.09,1.96-1.14.36-3.86,1.39-4.85,1.6-1.55,6.63.23,2.43-5.25ZM237.7,213.53c-.84-1.12-1.81-.53-2.87-.54-1.5-.02-11.96.76-11.92,2.27l9.01.1,5.79-1.83ZM249.91,215.59c-.12,1.04-.31,1.88-.99,2.71l16.74,9.45c-4.53-5.47-9.63-10.5-16.05-13.63-.96.66.36,1,.31,1.47ZM246.12,209.23l4.14,3.45,6.67,2.89c-2.9-2.18-7.05-6.52-10.81-6.34Z" fill="#514dff"/><path d="M229.47,144.25c14.27-2.26,35.89.9,47.39,10.45,2.47,2.05,12.11,13.95,10.6,16.92l-2.89,1.69c-3.38-1.66-2.15-4.18-3.47-5.84-3.45-4.34-12.11-6.73-17.58-7.16-21-1.66-29.46,11.21-47.64,16.26-5.09,1.41-7.2,5.02-11.43-1.82-3.16-5.09-1.98-10.08.89-15.02,6.25-10.75,12.72-13.67,24.14-15.48ZM226.76,148.95c-4.58-.11-9.35,3.34-12.33,6.68l12.33-6.68Z" fill="#514dff"/><path d="M300.26,185.23c-1.61-5.54-4.68-6.41-5.45-14.24-.1-.99-.31-9.4-.19-9.88,1.66-6.65,8.82-7.59,14.38-5.7,9.53,3.25,16.64,10.09,18.63,20.12,2.61,13.16-4.89,19.77-9.82,30.7-2.22,4.91-4.14,16.75-7.68,19.66-.84.69-2.34.6-2.84,1.31-.92,1.29.14,6.12-3.76,6.52-2.8-.22-1.07-6.46-1.17-8.18-.21-3.7-1.36-7.09-1.41-10.71-.07-4.74,1.81-9.14,2.02-13.57.19-4.03-1.54-12.01-2.7-16.02ZM302.17,163.43c-1.36,2.51.41,4.18.79,6.37.62,3.56.68,7.56,2.68,10.86,1.14-.09.18-8.44-.04-9.53-.55-2.76-1.04-5.84-3.44-7.7Z" fill="#514dff"/><path d="M219.27,307.82c.05-.96-1.11-2.49-.71-3.75.21-.66,1.45-1.29,1.9-2.23,3.11-6.48,8.99-15.76,15.4-19.35,3.13-1.76,8.94-1.94,12.1-3.5,8.71-4.3,8.72-5.49,19.06-6.2,2.54-.17,6.08-2.51,8.3.28.37.46-.65,1.08-.76,1.88-.05.36.7,1.04.48,1.32-.58.75-7.32,3.32-8.92,4.27-6.99,4.15-19.59,16.01-20.7,24.11-.26,1.9.98,7.03.18,10.03-.56,2.09-2.08,3.13-2.54,4.43-2.84,8.04,3.14,16.15-7.83,18.84-7.71,1.89-15.52-7.38-17.15-14.32-1.34-5.7.9-10.43,1.19-15.82ZM234.1,301.98c-1.9,1.86-2.31,4.75-3.83,6.8-1.7,2.29-5.48,2.85-2.26,7.09,3.51-3.64,7.3-8.58,6.09-13.89ZM228.34,300.91c-3.06.01-5.85,4.33-3.05,6.93.45-.06,3.02-4.36,3.44-5.18s1.32-1.75-.39-1.75Z" fill="#514dff"/><path d="M320.21,239.19c6.96-1.52,9.83.93,15.92,2.39,2.9.69,10.52,1.59,12.59,2.58s2.75,2.77,4.43,3.87c5.56,3.65,13.86,8.09,20.04,11.84,1.71,1.04,9.18,2.76,8.04,5.63-1.12,2.32-3.28,3.52-5.8,2.91-3.48-.84-10.57-6.16-14.57-7.97-9.06-4.1-26.36-1.7-35.39,2.19-7.32,3.15-21.33,15.61-29.1,8.27-2.77-2.62-3.85-5.79-3.4-9.55.59-4.94,3.77-11.34,8.04-14.11,3.1-2,15.46-7.24,19.19-8.05ZM301.26,253.2c3.68,2.37,7.05-3.96,10.37-5.49-2.02-.52-10.41,4.45-10.37,5.49Z" fill="#514dff"/><path d="M123.14,161.38c12.9-2.09,24.01-4.34,37.2-5.31,1.38-.1,4.4-1.53,5.3-1.35,1.36.28,2.62,1.86,4.32,2.46,2.7.95,7.59.27,9.37,1.07,2.62,1.18-3.55,2.62-3.57,3.63,2.79,1.81,7.98,1.34,10.8,2.71,2.56,1.24,3.18,4.46,6.32,5.17-1.92,3.4-4.87.16-6.93.32-7.08.52-14.62.39-22.01,1.88-6.14,1.23-17.57,3.92-23.22,6.04-9.1,3.41-18.4,11.22-29.17,8.9-8.92-1.92-11.9-9.62-6.53-16.93,3.24-4.41,12.7-7.71,18.1-8.59ZM106.49,178.36c.23,2.37,3.86-2.03,4.68-2.53,1.88-1.14,4.21-1.68,6.23-2.49l-7.48.08c-1.64.03-3.54,3.93-3.44,4.94Z" fill="#514dff"/><path d="M179.4,200.24c-3.07,3.02-7.39,4.75-9.94,8.28-.97,1.34-2.26,2.54-.41,3.9,4.25-2.53,8.62-5.04,11.54-9.21l-1.57-1.4c-.08-.57,8.89-4.97,10.12-5.42,2.07-.76,6.09-.87,7.62-1.71,1.85-1.01.7-3.65,4.83-.39.2,1.59-9.04,8.62-10.75,10.43-11.1,11.79-8.64,28.45-18.29,40.66-1.9,2.4-11.89,9.97-14.62,10.94-3.1,1.11-9-2.41-11.12-4.72-7.02-7.64-2.9-15.73,1.58-23.32,4.04-6.85,21.16-24.66,28.21-27.54.87-.35,1.81-1.11,2.79-.51ZM149.29,248.06c1.03.44,3.72,4.41,4.54,2.47,0-2.95,3.21-6.07,3.37-8.79.29-4.75-4.66-4.03-1.42.98l-6.49,5.34ZM152.34,228.75c-.41,1.23-5.57,12.23-2.62,12.06,1.56-3.39,1.07-7.53,3.96-10.29l-1.35-1.77ZM175.82,225.8c-1.99,2.65-5.02,6.66-3.82,10.1,1.78-1.77,2.93-3.93,3.84-6.24.44-1.13,1.64-3.1-.01-3.85Z" fill="#514dff"/><path d="M341.69,211.68c2.3-.1,4.85-.53,7.05.56,3.21,1.59,2.25,1.36,5.83,2.48,8.5,2.67,9.03,8.47,15.77,13.25l-13.34-12.12c1.21-.76,13.64,9.44,14.37,10.24,4.75,5.28,8.8,12.92,12.23,19.11,1.61,2.9,3.51,5.85,5.13,8.86,1.39,2.59,8.13,14.36,1.05,13.18-4.42-.74-1.85-1.99-2.46-4.29-.87-3.27-12.2-15.2-15.23-17.08-8.12-5.04-24.11-7.95-33.38-10.56-9.62-2.7-19.76-4.88-12.47-16.87,3.87-6.37,8.59-6.45,15.45-6.74Z" fill="#514dff"/><path d="M367.69,342.63c.12-6.63,3.39-18.1,7.74-23.1,3.35-3.86,9.1-6.75,13.16-9.9,2.48-1.92,10.13-11.35,13.65-7.51,1.84,2.01-1.92,6.57-2.69,8.78-3.51,10.09-2.7,25.46-5.37,36.52-2.34,9.67-11.99,14.76-20.8,9.47-5.34-3.2-5.79-8.48-5.68-14.26ZM377.17,343.4c-2.55,4.33-6.2,7.23.28,9.76,1.14-.12.46-9.91-.28-9.76Z" fill="#514dff"/><path d="M121.6,136.2c2.6-.59,13.79-1.34,16.17-.73,2.13.55,3.76,2.49,4.87,2.61.77.08,1.58-1.12,2.2-1.18,7.03-.67,11.26.42,17.94,1.91,4.87,1.09,7.2-.2,10.44,4.72-1.31,2.87-6.42-.89-3.06,3.59-1.69.48-3.04-.88-4.49-1.04-1.92-.21-3.44,1.27-4.76,1.36-10.93.76-17.25,2.91-27.46,4.74-3.37.6-10.72,1.43-13.45-.43-7.2-4.89-8.39-13.29,1.58-15.56Z" fill="#514dff"/></g></svg>