<?xml version="1.0" encoding="UTF-8"?><svg id="a" xmlns="http://www.w3.org/2000/svg" width="467.71" height="407.62" xmlns:xlink="http://www.w3.org/1999/xlink" viewBox="0 0 467.71 407.62"><defs><clipPath id="b"><rect x="122.52" y="-3.87" width="228.39" height="394.98" fill="none"/></clipPath></defs><g clip-path="url(#b)"><path d="M144.15,82.65c14.37,16.21,31.79,29.93,42.75,49.24l3.66,9.35s-.05-.04-.08-.06c.5.75.66,1.51.57,2.22l4.03,3.32c.33-.27.75-.48,1.26-.62l-.12-.1c3.94-4.15-1.82-10.28-3.42-14.6-10.56-28.39-12.18-55.3-33.58-80.26-4.04-4.72-7.15-6.62-13.3-6.11-9.9.81-15.73,7.35-14.81,17.28.83,9.03,7.65,14.23,13.06,20.34ZM177.91,98.19c.35,1.03,1.52,1.1-.07,2.33l-8.35-12.89c5.3-.78,7.07,6.56,8.43,10.56ZM165.46,74.65l5.28,9.22c-4.32-2.59-5.61-7.47-9.23-10.73,1.2-2.3,2.72.63,3.95,1.51ZM141.76,70.83c2.01,1.33,8.78,9.87,10.17,12.23.51.86,1.33,1.76.7,2.81l-12.68-14.63c-.27-1.46.96-.97,1.81-.41Z" fill="#514dff"/><path d="M73.5,79.54c.36,1.22,3.28,9.25,3.77,10.13,4.32,7.74,12.86,11,20.69,13.95,20.49,7.73,44.16,9.64,62.81,21.25,2.06,1.28,11.63,9.3,13.47,11.15,1.7,1.72,5.17,12.12,8.57,8.75.29-.29.49-.59.62-.89-1.63-2.72-2.29-5.85-3.76-8.67-1.4-2.69-3.07-5.37-4.82-7.91-.78-.85-1.56-1.71-2.35-2.59-8.35-9.3-15.71-17.14-24.73-25.65-13.23-12.48-25.28-24.04-41.37-32.93-1.2-.66-13.45-4.42-14.18-4.29-.96.17-2.64,1.96-4.11,2.31-1.03.24-2.07-.48-3.27-.12-4.92,1.47-12.93,9.97-11.32,15.5ZM117.73,102.86c2.63,1.05,5.49,1.9,7.85,3.49-2.93.87-8.56-1.38-10.22-3.87.56-.93,1.61.08,2.36.38ZM100.2,70.32c-1.47.77-10.01-.78-10.05-1.79,2.55-3.43,7.61-.39,10.05,1.79Z" fill="#514dff"/><path d="M252.78,182.73c-.72.23-1.52.22-2.33.16-1.75.31-3.45.93-5.19,1.32-.08.13-.16.25-.24.4l-.41-.26c-.94.19-1.81.34-2.64.51.06.07.12.13.18.2l-6.2,2.32c-2.29,1.32-4.89,2.4-7.53,2.82l-.2.08c-2.35,1.58.11,4.24,2.46,4.41,2,.14,3.97-2.57,5.51.72,1.56-2.13,9.89-4.83,13.36-4.42,1.66-.34,3.46-.38,5.3-.24,1.56-.89,3.58.05,5.25-.11,11.1-1.03,24.73-.59,35.67,2.13,9.21,2.29,23.68,7.78,33.18,6.78.3-.03.6-.08.91-.14,4.55-2.88,9.68-4.72,13.62-8.65,3.32-3.31,7.84-9.27,5.78-14.16-1.28-3.06-4.05-5.1-6.47-7.22-.97-.85-1.91-1.7-2.89-2.45-2.41-1.09-6.6-1.42-9.9-2.32l-1.07-.84c-.46-.06-.93-.11-1.39-.17l.35.29c-.23-.1-.44-.21-.64-.33-.8-.1-1.6-.22-2.4-.35-3.7.31-7.38.45-11.03,1.32-20.36,4.84-41.22,11.75-61.04,18.21ZM332.47,182.16c1.16.12,7.62.38,7.68,1.18-2.9,2.88-7.12,1.38-9.97-.75.96-1.84,1.32-.52,2.29-.43Z" fill="#514dff"/><path d="M312.67,150.91c7.8-4.14,19.86-5.11,25.72-12.03,5.03-5.93,1.02-18.56-3.82-23.75-.69-.74-1.38-1.25-2.04-1.66-.65-.04-1.32-.24-1.96-.67-1.07-.72-3.55-.73-4.87-1.14-1.76-.54-3.51-1.12-5.31-1.52-3-.67-5.62-.44-8.38-.12-4.78,1.69-10.38,4.1-12.64,5.61-3.53,2.37-7.49,7.18-11.31,10.24-1.77,1.31-2.31,1.98-3.41,2.91l20.22,15.98-20.22-15.98c-.18.09-.57.53-.76.62l-.58.33c-.51.6-5.67,3.11-7.47,4.59-4.56,3.73-15.62,12.53-19.02,16.4-3.1,3.54-6.24,9.49-9.31,13.29-3.17,3.91-6.26,7.1-9.83,10.24-1.47,1.74-3,3.71-5.03,4.77l-6.16,6.29,1,.6c1.9-.27,3.59-1.13,5.26-2.09.2-.47.63-.85,1.33-1,.23-.05.45-.11.67-.17,1.29-.75,2.62-1.44,4.06-1.85.13-.04.26-.06.39-.1.4-.2.81-.4,1.22-.58,1.85-.82,3.74-1.55,5.67-2.17,18.67-14.54,36.8-19.84,60.01-24.54,1.6-.32,4.76-1.92,5.58-1.94.24-.14.48-.28.73-.41M329.57,136.7c.93,1.54.17,2.12-1.03,2.99-3.36,2.43-14.68,5.25-19.12,5.96,6.56-3.19,14.12-4.85,20.15-8.95ZM301.66,122.97l-2.01-1.06c-.07-.52,8.02-4.64,9.23-5.19.97-.44,2.85-1.68,3.82-1.1l-11.04,7.34Z" fill="#514dff"/><path d="M232,156.92c-1.74,2.76-3.94,5.2-5.94,7.78-1.67,3.79-3.74,7.35-5.76,11-.17.31-.38.54-.61.72-.72,1.68-1.04,3.21-.14,3.98,3.17,2.71,5.32-3.59,7.47-5.81.61-.91,1.22-1.83,1.84-2.74l-.34-.29c.8-.85,1.56-1.72,2.3-2.6.09-.13.17-.26.26-.38.15-.21.31-.36.48-.49,6.59-8.09,11.23-17.26,18.39-25.15,3.47-3.83,9.13-9.46,13.05-12.82,1.37-1.17,10.96-7.24,13.22-8.03l-23.15-18.3c-.33,1.3-.44,2.73-.96,3.99-6.71,16.47-10.34,33.68-20.09,49.14Z" fill="#514dff"/><path d="M206.01,96.4c-.14,1.07.91,2.6.82,4.11-.2,3.44-2.15,7.46-2.32,10.11-.53,8.52,7.87,19.82,10.1,27.89.32,1.17.61,4.18.84,7.32.57,2.35.84,4.73,1,7.19.13,1.99.18,3.97.16,5.96,0,.06,0,.13,0,.19.31,1.94.5,3.89.7,5.84l1.3,1.07c1.48-.81,3.02-4.43,3.41-5.43.63-1.61,1.12-3.28,1.78-4.88,1.63-18.19,11.87-31.81,16.07-50.13,1.42-6.18-.6-4.55-2.79-7.59-3.69-5.12-4.67-9.08-10.6-13.01-6.83-4.53-19.47,3.84-20.47,11.36Z" fill="#514dff"/><path d="M318.13,210.93c-6.52-4.69-20.15-6.29-28.2-6.54-3.73-.12-15.7,1.28-20.74,0-2.27.21-4.37-.51-6.55-1.25-3.39-.13-6.79-1.59-10.07-2.32-1.31-.3-2.76.3-4.18-.06-2.07-.51-4.77-2.73-6.88-2.79-1.4-.04-2.31,1.39-3.69,1.23-.89-.1-6.19-2.38-6.72-2.28,1.01,4.72-7.3,3.74-4.8,8.5,1.13.96,7.34-.81,9.36-.65,21.57,1.74,42.42,23.54,64.85,27l.07.06c.91.08,1.81.16,2.72.3.92.13,1.84.28,2.76.4.33.04.67.05,1,.11.02-.02.04-.03.07-.05.02,0,.03-.01.04-.02.65-.41,1.45-.5,2.22-.35,3.24-.65,7.28-1.24,8.25-1.69,11.28-5.29,9.38-13.21.49-19.61ZM318.88,219.75l1.48,2.79c-.82,1.31-.69.98-1.76.65-1.85-.57-3.75-1.62-5.65-2.14l5.93-1.3Z" fill="#514dff"/><path d="M290.03,90.04c-1.81-2.17-5.71-5.34-8.39-6.19-7.67-2.44-13.96,2.58-14.87,3.35-7.32,6.14-12.53,13.26-13.72,16.59l23.12,18.28h0c1.5-.88,2.91-1.91,4.21-3.06,8.37-7.39,18.48-18.34,9.64-28.96ZM275.35,115.54c-.88.48-1.73,1.37-2.81.73l13.98-14.19c.1,5.47-6.74,11.03-11.17,13.47Z" fill="#514dff"/><path d="M233.24,266.18c4.48.3,9.65,4.13,12.35,4.2.14,0,.2-1.1,1.16-1.24,6.72-.99,17.33,6.19,23.17,8.25,2.51.89,7.08-.13,8.24,3.53-.67,4.68-13.87,5.18-17.87,6.43-10.31,3.21-40.33,21.79-48.78,29.13-5.42,4.71-6.97,8.91-11.02,13.68-1.45,1.71-5.86,6.17-7.65,7.13-4.37,2.33-9.94-.21-13.34-3.12-8.21-7.02-9.79-28.56-2.97-36.91,3.13-3.83,14.57-15.52,18.34-18.21,7.45-5.29,29.3-13.47,38.36-12.87ZM185.93,331.77c5.32,5.49,8.62-2.5,12.52-5.72-1.31-1.29-.85-.95-1.82-.1-2.29,2.01-4.35,4.47-6.8,6.31l-2.16-.88.87-2.16-2.6,2.56ZM186.79,323.87c-2.71-2.13-5.43,2.14-4.55,4.8,2.79.06,3.52-2.89,4.55-4.8ZM253.87,275.85c-.51.02-5.48,1.81-5.23,3.04,3.7.22,7.43-.63,11.12-1.16-1.28-.35-5.02-1.92-5.89-1.88Z" fill="#514dff"/><path d="M99.7,241.82c4.81-1.01,4.66-4.73,12.97-4.28,9.13.49,38.2,10.67,45.66,15.82,2.42,1.67,14.36,11.64,13.67,14.03-1.2,1.97-1.34,1.25-2.85.05-1.66,3.59-5.5.1-7.59-.19-.94-.13-3.06.85-4.63.88-25.62.39-47.18,10.68-70.38,20.34l.88,1.21c-1.2,2.53-2.24.8-3.81,1.04-4.12.64-12.4,2.66-16.13.88-7.6-3.63-11.55-15.23-6.99-22.43,4.24-6.7,13.77-18.35,19.98-23.1,1.21-.92,11.32-4.5,12.68-4.59,1.62-.11,4.13.83,6.54.33ZM67.04,285.85c7.53,4.27,10.43.42,1.38-2.15l-1.04.07-.34,2.08ZM79.93,287.17l2.9.46,12.78-6.44c-.83-1.02-1.84-.75-2.9-.46-1.51.41-12.81,5.68-12.78,6.44ZM72.4,265.34c-2,1.77-2.5,4.41-3.36,6.79,2.75-.35,6.93-4.78,3.36-6.79ZM95.7,243.94c-1.26.23-10.58,4.17-11.85,5.05-3.22,2.24-6.05,6.12-8.93,8.85,1.18.7,1.92-.35,2.79-.87,5.74-3.39,13.9-7.44,18.92-11.31.46-.36.9-.68,1.2-1.19,0-.11-1.81-.59-2.13-.53ZM110.3,262.77c1.36,1.68,1.28.34,2.31-.17,3.1-1.53,6.28-2.8,9.31-4.43-.11-2.63-11.27,2.9-11.62,4.6ZM110,246.1c.39,1.49,10.35-.79,10.27-1.89l-8.55-2.4-1.72,4.28ZM140.85,259.76c-.08-1.37-8.76-.48-9.24,1.8,1.28.57,9.31-.63,9.24-1.8ZM144.7,262.06c1.66,1.9,3.54-.37,4.9-.59,1.92-.31,4.02,1.7,5.45-.26l-9.04-1.75-1.32,2.6ZM138.27,253.7l2.98,1.43,13.94,1.37c-4.48-3.93-11.49-5.98-16.92-2.8Z" fill="#514dff"/><path d="M234.18,360.87c-.39.16-4.29.35-4.94.22-4.87-1-7.39-4.89-9.78-8.82-13.14-21.66-.49-34.39,16.67-47.51,13.91-10.63,28.62-12.58,45.32-13.93,1.97-.16,5.28-2.39,7.05-.91,5.16,4.33-7.52,6.26-9.14,7.3-14.32,9.17-23.4,18.1-31.26,33.4-3.72,7.23-4.78,18.93-8.32,24.69-1.46,2.38-2.89,4.48-5.61,5.57ZM220.64,342c-.17,3.41,2.38,6.98,4.92,8.98l-.41-8.05c-1.79,1.05-2.93.29-4.51-.93ZM218.67,330.67c.95.82.94,1.35,1.75.12,1.56-2.37,4.49-6.16,3.8-8.93l-5.55,8.8ZM238.86,331.6c.04.21-.97,2.85-1.1,4.04-.09.82-.31,2.71.95.97.54-3.51,2.46-6.51,3.7-9.73.45-1.18,1.56-1.25-.22-2.3-.25,1.78-4.81,5.23-4.76,5.6.03.21,1.32.73,1.43,1.42ZM250.98,310.8c-5.8.56-10.25,6.24-13.75,10.53,1.24.71,1.92-.38,2.79-.96,3.67-2.49,7.93-6.35,10.96-9.56Z" fill="#514dff"/><path d="M133.3,135.25c-7.6-.18-14.53.39-22.02,1.99-10.32,2.2-36.57,12.97-45.16,9.58-10.54-4.15-13.5-16.39-2.31-21.98,2.18-1.09,4.09-.54,6.17-1.19,8.64-2.73,8.57-3.75,18.39-4.96,24.15-2.97,32.59-2.49,54.97,8.32,6.31,3.05,23.41,11.45,27.93,15.65,1.45,1.35,5.33,7.93.52,6.73-6.45-3.46-12.87-8.13-19.68-10.87-6.34-2.55-12.38-3.11-18.8-3.27ZM71.55,133.34c-.08-1.14-13.74-.58-9.07,4.69,2.33,2.64,3.95-1.39,5.83-2.91.98-.79,2.52-.54,3.24-1.78ZM99.41,135.77c-.84-1.14-1.83-.55-2.91-.55-1.99-.01-13.57.83-13.59,2.94,5.62,2.91,10.78-1.27,16.5-2.39Z" fill="#514dff"/><path d="M-9.54,222.95c-.52-1.54-4.36-1.55-4.08-3.58.18-1.3,2.31-2.99,3.1-4.43,1.98-3.58,4.24-8.73,6.51-12.01,6.94-10.03,36.03-19.87,48.21-22.59,11.58-2.58,22.78-.38,34.5-.85,3.78,1.65,5.57,3.83,1.86,6.83-4.18-3.82-5.79-.77-9.1.37-11.92,4.12-20.46,6.38-30.63,14.94-9.83,8.27-19.5,17.39-29.2,25.99-5.33,4.73-6.89,6.56-13.78,3.84-2.61-1.03-5.98-2.67-7.53-5.11-.93-1.46.29-2.94.14-3.41ZM-5.05,224.68l5.78,3.45,1.17-1.42c.04-.46-3.7,1.1-3.72-3.12-.01-2.46,2.24-2.05,1.81-4.29l-5.04,5.37ZM-5.8,215.34l2.38.41,5.96-6.83c-4.17-2.26-5.69,4.36-8.34,6.42ZM3.88,218.73c.21,1.65,1.06.72,1.82.08,5.27-4.44,11.28-7.99,16.47-12.54-3.17-2.2-5.2,2.19-7.26,3.72s-11.27,6.81-11.02,8.74ZM18.43,192.48c0,1.66-9.45,1.69-8.14,5.62l9.11-4.36.66-3.74-4.26,2.18,2.62.3ZM55.59,180.93c-3.85.36-9.28,1.64-12.77,3.31,4.99.86,9.29-2.05,14.19-1.96,1.63-1.22-1.02-1.39-1.42-1.35Z" fill="#514dff"/><path d="M164.24,187.9l1.12.95.67-1.36c6.63,6.25,7.34,16.9,10.19,25.27,2.23,6.54,8.18,17.69,7.78,24.42-.64,10.83-4.64,8.65-9.65,1.31-2.99-4.39-2.07-6.87-4.07-11.15-5.28-11.35-18.97-19.6-29.72-25.48-8.41-4.6-18.82-5.99-21.15-16.83-2.5-11.62,7.42-13.83,16.56-13.81,7.68.01,15.79,1.83,21.97,6.63,2.37,1.84,8.58,7.25,6.29,10.06ZM127.32,177.03c-2.41.82-3.87,5.65-1.99,7.78,2.87-1.25,3.9-4.15,6.02-5.95,1.09-.93,2.51-.32,3.28-1.6-1.54.83-6.97-.35-7.32-.23ZM159.24,189.85c.5,5.5,4.05,4.24,6.87,8.33l-3.95-7.77-3.12-2.08c-.89.65.14.84.2,1.51Z" fill="#514dff"/><path d="M161.32,286.04c.09-.07.93.62,1.35.29.89-.7,1.36-1.99,2.2-2.59,1.1-.79,6.36-.24,6.14,2.52-.15,1.94-5.79,5.36-7.34,7.5-4.34,6.01-5.15,20.36-2.76,27.25,2.18,6.29,7.41,13.33,11.98,18.08l-3.1.24,9.53,8.09-.73-2.53c10.01,6.22,10.49,21.28-3.09,22.92-7.59.91-6.52-2.36-11.95-5.71-2.34-1.44-6.2-1.62-8.69-3.52-12.57-9.63-21.1-36.09-13.38-50.6,2.94-5.52,14.78-17.93,19.84-21.95ZM154.61,351.55c3.47,2.54,7.33,5.94,10.86,8.27,1.13.74.76.94,1.78-.42-4.09-2.81-7.61-5.94-9.22-10.73l-3.42,2.88ZM144.93,328.85c2.62,3.78,1.4,9.54,5.72,12.58.68-5.55-2.87-8.76-4.51-13.46l-1.21.88ZM163.18,341.45c2.24,3.45,1.71,4.17,5.93,5.3,1.09.29,1.24,1.65,2.3-.22-2.21-1.57-4.24-4.04-6.45-5.49-.86-.56-1.97-1.08-1.78.41Z" fill="#514dff"/><path d="M106.84,201.2c.88-.08,16.42,2.92,17.24,3.27,22.7,9.55,30.86,22.11,44.63,40.75,2.81,3.81-1.05,5.49-3.4,4.26-1.02-.53-2.39-3.04-3.95-4.23-8.31-6.3-30.39-13.58-40.88-14.35-8.11-.59-28.08,2.64-33.99-2.02-6.26-4.94-7.28-11.34-2.1-17.55,1.18-1.41,6.47-6.52,7.79-7.33,2.34-1.43,9.57-1.25,12.42-1.54.86-.09,1.62-1.2,2.22-1.26ZM87.21,222.89c6.03,6.56,13.63,3.49,20.88,3.26,2.48-.08,6.21,1.95,8.57-.44-3.05-.48-6.12-.92-9.21-1.04-2.85-.11-8.57.75-10.99.22-2.31-.51-4.95-4.49-9.25-1.99ZM90.9,210.59c-.82.12-6.77,8.45-3.86,10.22,1.99-1.15.37-3.9,1.4-4.91,1.62-1.57,6.71.23,2.46-5.31ZM122.04,214.83c-.85-1.14-1.83-.54-2.91-.55-1.52-.02-12.11.77-12.07,2.3l9.12.1,5.86-1.85ZM134.41,216.91c-.12,1.06-.32,1.91-1,2.75l16.95,9.57c-4.58-5.54-9.75-10.63-16.26-13.8-.98.67.37,1.01.31,1.49ZM130.57,210.48l4.2,3.49,6.76,2.93c-2.94-2.21-7.14-6.6-10.95-6.42Z" fill="#514dff"/><path d="M113.71,144.67c14.45-2.28,36.34.91,47.99,10.58,2.51,2.08,12.26,14.13,10.73,17.14l-2.93,1.71c-3.42-1.68-2.18-4.23-3.52-5.91-3.5-4.39-12.26-6.82-17.8-7.26-21.26-1.68-29.84,11.35-48.25,16.47-5.15,1.43-7.29,5.09-11.58-1.84-3.2-5.16-2-10.21.9-15.21,6.33-10.89,12.88-13.84,24.45-15.67ZM110.97,149.43c-4.64-.12-9.46,3.38-12.49,6.77l12.49-6.77Z" fill="#514dff"/><path d="M185.4,186.17c-1.63-5.61-4.74-6.49-5.52-14.42-.1-1-.31-9.52-.19-10.01,1.68-6.74,8.94-7.69,14.56-5.77,9.65,3.29,16.85,10.21,18.87,20.38,2.64,13.33-4.95,20.02-9.95,31.09-2.24,4.97-4.19,16.97-7.77,19.91-.85.7-2.36.61-2.88,1.32-.93,1.3.15,6.2-3.81,6.6-2.83-.22-1.09-6.54-1.18-8.28-.21-3.75-1.37-7.18-1.43-10.85-.07-4.8,1.83-9.25,2.05-13.74.2-4.08-1.56-12.16-2.74-16.22ZM187.33,164.09c-1.37,2.54.41,4.24.8,6.45.63,3.61.68,7.66,2.72,11,1.15-.1.18-8.55-.04-9.65-.56-2.8-1.05-5.91-3.48-7.8Z" fill="#514dff"/><path d="M103.38,310.32c.05-.98-1.12-2.52-.72-3.8.21-.67,1.46-1.3,1.92-2.26,3.15-6.56,9.1-15.96,15.59-19.6,3.17-1.78,9.06-1.97,12.25-3.55,8.82-4.35,8.83-5.56,19.3-6.28,2.57-.18,6.16-2.55,8.4.29.37.47-.65,1.1-.77,1.91-.05.37.71,1.05.49,1.34-.59.76-7.41,3.37-9.03,4.33-7.08,4.2-19.84,16.21-20.96,24.42-.26,1.92,1,7.12.19,10.16-.56,2.12-2.11,3.17-2.57,4.48-2.88,8.15,3.18,16.35-7.93,19.08-7.8,1.91-15.71-7.48-17.36-14.5-1.36-5.77.91-10.56,1.21-16.02ZM118.4,304.4c-1.93,1.88-2.34,4.81-3.88,6.88-1.73,2.32-5.55,2.89-2.29,7.18,3.56-3.69,7.39-8.69,6.17-14.06ZM112.57,303.32c-3.1.01-5.93,4.39-3.09,7.02.46-.06,3.06-4.41,3.48-5.25s1.34-1.78-.39-1.77Z" fill="#514dff"/><path d="M205.6,240.81c7.04-1.54,9.96.95,16.12,2.42,2.93.7,10.65,1.61,12.75,2.62,2.01.97,2.79,2.81,4.49,3.92,5.63,3.69,14.03,8.19,20.29,11.99,1.73,1.05,9.3,2.8,8.14,5.7-1.13,2.35-3.32,3.57-5.87,2.95-3.53-.85-10.71-6.24-14.75-8.07-9.18-4.15-26.69-1.72-35.84,2.21-7.41,3.19-21.6,15.81-29.46,8.38-2.81-2.65-3.9-5.86-3.44-9.68.6-5,3.81-11.49,8.15-14.29,3.14-2.03,15.66-7.33,19.43-8.15ZM186.41,255c3.73,2.4,7.14-4.01,10.5-5.56-2.05-.53-10.54,4.51-10.5,5.56Z" fill="#514dff"/><path d="M6.03,162.02c13.07-2.12,24.32-4.39,37.67-5.37,1.4-.1,4.46-1.55,5.37-1.36,1.37.28,2.65,1.89,4.38,2.49,2.74.97,7.68.27,9.49,1.08,2.65,1.19-3.59,2.65-3.61,3.67,2.82,1.83,8.08,1.35,10.94,2.74,2.59,1.26,3.22,4.52,6.41,5.23-1.94,3.45-4.93.16-7.02.32-7.17.53-14.8.4-22.29,1.91-6.22,1.25-17.79,3.97-23.51,6.11-9.22,3.45-18.63,11.36-29.54,9.01-9.03-1.94-12.05-9.74-6.61-17.14,3.28-4.46,12.87-7.81,18.33-8.7ZM-10.83,179.22c.23,2.4,3.91-2.05,4.74-2.56,1.91-1.16,4.26-1.7,6.31-2.52l-7.57.08c-1.66.03-3.58,3.98-3.48,5Z" fill="#514dff"/><path d="M63,201.37c-3.11,3.06-7.49,4.81-10.07,8.39-.98,1.35-2.29,2.57-.41,3.95,4.3-2.56,8.73-5.1,11.68-9.33l-1.59-1.41c-.08-.58,9.01-5.03,10.25-5.49,2.1-.77,6.17-.88,7.72-1.73,1.87-1.02.71-3.7,4.89-.4.2,1.61-9.16,8.73-10.88,10.56-11.24,11.94-8.75,28.81-18.52,41.17-1.92,2.43-12.04,10.09-14.8,11.08-3.14,1.12-9.11-2.44-11.26-4.78-7.1-7.74-2.93-15.93,1.6-23.62,4.09-6.94,21.43-24.98,28.56-27.89.88-.36,1.83-1.12,2.82-.52ZM32.51,249.8c1.04.45,3.77,4.47,4.6,2.5,0-2.99,3.25-6.14,3.41-8.9.29-4.81-4.72-4.08-1.44.99l-6.57,5.4ZM35.6,230.24c-.41,1.25-5.64,12.39-2.65,12.21,1.58-3.43,1.09-7.63,4.02-10.42l-1.36-1.79ZM59.38,227.26c-2.02,2.69-5.08,6.75-3.87,10.22,1.81-1.8,2.97-3.98,3.88-6.32.44-1.14,1.66-3.14-.01-3.9Z" fill="#514dff"/><path d="M227.35,212.96c2.33-.1,4.91-.54,7.14.56,3.25,1.61,2.28,1.38,5.9,2.51,8.61,2.7,9.14,8.58,15.97,13.41l-13.51-12.27c1.23-.77,13.81,9.55,14.55,10.37,4.81,5.34,8.91,13.09,12.39,19.35,1.63,2.94,3.56,5.92,5.2,8.97,1.41,2.62,8.24,14.54,1.07,13.35-4.47-.75-1.87-2.01-2.49-4.35-.88-3.31-12.36-15.39-15.42-17.3-8.23-5.11-24.41-8.05-33.8-10.69s-20.01-4.94-12.63-17.09c3.92-6.45,8.7-6.53,15.64-6.83Z" fill="#514dff"/><path d="M253.68,345.57c.12-6.72,3.43-18.33,7.84-23.39,3.4-3.9,9.21-6.84,13.32-10.03,2.51-1.95,10.26-11.49,13.82-7.6,1.87,2.04-1.95,6.66-2.73,8.89-3.56,10.22-2.73,25.79-5.44,36.98-2.37,9.8-12.14,14.95-21.06,9.59-5.41-3.24-5.86-8.58-5.76-14.44ZM263.29,346.35c-2.58,4.38-6.28,7.32.28,9.89,1.15-.12.47-10.04-.28-9.89Z" fill="#514dff"/><path d="M4.47,136.52c2.64-.6,13.96-1.36,16.38-.73,2.16.55,3.8,2.52,4.93,2.64.78.08,1.6-1.14,2.23-1.2,7.12-.68,11.41.42,18.17,1.94,4.93,1.1,7.29-.21,10.57,4.78-1.33,2.91-6.5-.9-3.1,3.64-1.71.49-3.08-.89-4.54-1.05-1.94-.21-3.49,1.28-4.82,1.37-11.07.77-17.47,2.94-27.81,4.8-3.41.61-10.85,1.45-13.62-.43-7.3-4.95-8.49-13.46,1.6-15.75Z" fill="#514dff"/></g></svg>