<?xml version="1.0" encoding="UTF-8"?><svg id="a" xmlns="http://www.w3.org/2000/svg" width="100.39" height="242.44" xmlns:xlink="http://www.w3.org/1999/xlink" viewBox="0 0 100.39 242.44"><defs><clipPath id="b"><rect x="179.76" y="-111.54" width="228.39" height="394.98" fill="none"/></clipPath></defs><path d="M41.48,160.13c-1.58,1.05-2.55,1.65-4.29,2.45-1.74,1.98-3.73,5.02-5.76,7.68-2.05,2.65-14.38,14.77-16.06,15.3-.78-.49.63-7.29,1.51-8.31,3.2-5.79,15.41-20.45,18.91-24.42,3.56-3.95,7.12-8.12,10.52-14.72.82-1.1.06-6.05.06-10.55,0,0-.77,1.1-1.68,2.4.06-6.21,3.98-14.71,4.79-22.07q-1.05,1.34-1.89,2.08c4.84-4.79,6.61-17.24,8.26-26.14.73-1.69,1.44-2.84,2.16-4,.49-4.15,1.26-8.15,1.97-12.37.73-4.23,1.27-8.62.91-13.23-.08-3.84.36-8.21.24-12.48-.06-2.14-.25-4.25-.69-6.24l-.37-1.47-.44-1.28c-.34-.84-.73-1.66-1.21-2.42-1.27-2.82-3.01-5.57-5.05-7.68-2.06-2.09-4.3-3.44-6.61-3.8-2.29-.35-4.97.25-7.3,2.05-2.31,1.75-4.11,4.51-4.62,7.45-.18.98-.68,2.12-1.44,3.29-.81,1.34-1.93,2.82-3.37,4.33,1.53,4.7,1.71,10.5,1.91,18.04.04,3.72.22,7.88.23,11.82.03,1.99-.05,3.96.04,5.87.09,1.91.17,3.78.25,5.56.23,2.6-.24,4.85-.76,6.74-.53,1.89-1.31,3.43-1.99,4.61,4.23,13.5,9.38,27.47,13.96,41.16,6.21,17.45,14.04,34.03,22.53,52.75,1.14,2.61,4.74,6.75,6.95,8.61.26,1.3.53,2.59.79,3.89,1.63,2.49,3.57,4.69,5.39,6.9,1.84,2.2,3.68,4.32,5.62,6.29,1.89,2.01,3.72,4,5.4,6.03,1.73,2,3.43,3.96,4.88,6.1.99,1.47,1.81,2.84,2.46,4.12.68,1.26,1.25,2.4,1.66,3.5.82,2.18,1.1,4.1,1.04,5.82-.13,3.45-1.66,6.12-2.99,8.67-3.39-2.21-7.07-4.18-10.91-6.24-3.76-2.15-7.58-4.48-11.49-7.18-3.78-2.79-7.5-6.07-11.03-10.01-1.68-2.04-3.31-4.24-4.86-6.65-.78-1.2-1.53-2.45-2.27-3.75-.68-1.34-1.33-2.73-1.95-4.18-2.51-6.48-9.57-14.27-14.26-21.7-2.19-3.02-3.71-6.58-5.14-10.03-1.44-3.45-3.08-6.64-6.01-8.88.04-2.53-.17-5.83-.73-9.49-.26-1.84-.66-3.76-1.02-5.78-.33-2.03-.73-4.13-1.19-6.25-.45-2.13-1-4.27-1.54-6.43-.48-2.18-1.02-4.35-1.61-6.49-.58-2.14-1.27-4.22-1.91-6.26-.6-2.05-1.26-4.03-1.98-5.9.14-1.39.91-.05.86-2.4-.58-1.29-1.15-2.6-1.7-3.93-.49-1.34-.96-2.7-1.41-4.08-.91-2.75-1.76-5.57-2.57-8.43-.67-2.89-1.29-5.83-1.88-8.81-.29-1.49-.6-2.99-.84-4.5-.2-1.52-.4-3.05-.6-4.58-.37-3.07-.82-6.16-1.07-9.3-.21-3.14-.43-6.3-.65-9.47-.44-6.33-.6-12.9-.18-19.74.24-6.91,2.05-14.69,6.36-22.23,2.2-3.74,4.92-7.26,8.27-10.4,3.32-3.16,7.24-5.98,11.91-8.13.83-.51,3.5-1.09,6.67-1.18,3.17-.14,6.76.37,9.48.83,1-.04,1.98.03,2.98.13,1.01.07,1.99.23,2.97.42,6.82,2.97,12.65,8.07,16.54,13.71,1.95,2.83,3.42,5.79,4.41,8.68.52,1.43.84,2.88,1.12,4.24.19,1.33.36,2.59.33,3.77.42,5.47.48,10.42.26,15.09-.23,4.66-.77,9.03-1.87,13.13-1.67,6.14-2.94,14.06-4.53,21.8-1.59,7.72-3.62,15.12-6.65,19.78-.77,1.16-1.4,5.4-2.11,8.1-.75,1.16-1.56,2.29-2.35,3.44-.75,2.67.94,5.01.19,7.69-5.34,17.22-12.03,38.77-20.66,44.77.13-1.52,1.25-7.14-1.3-5.47Z" fill="#514dff"/><path d="M3.36,221.88c-.48-1.02-1.87,1.25-2.47,2.79,1.47-.89,2.84-1.18,4.92-3.61l-2.39,4.2c.75,3.24,2.68-3.99,2.17-1.04-1.4,2.29-2.68,3.98-3.06,2.36.68-.15.89-1.33,1.79-2.66-1.17-.87-2.85,1.18-4.32,2.06l3.47-6.68-.12,2.57Z" fill="#514dff"/><path d="M12.89,207.75l-.86,1.35c.5,1.01,1.69-.12,2.82-1.28-4.13,5.58-2.46-1.09-5.56,1.94.59.43,3.11-3.02,3.6-2.01Z" fill="#514dff"/><path d="M12.7,217.5c-2.9,1.85-2.88,5.22-5.13,4.87,1.8-2,3.58-4.01,5.31-6.06l-.19,1.19Z" fill="#514dff"/><path d="M32.1,169.82c.17-2.4.08-1.2,1.61-4.66l-1.97,5.08.36-.42Z" fill="#514dff"/><path d="M62.43,64.75c-1.66,2.83-3.4,5.04-4.53,9.76.79-4.85,3.98-8.82,4.53-9.76Z" fill="#514dff"/><path d="M64.34,20.82c.66-.32-.09-1.69,1.44-.15.26,1.02-1.95.89.61,3.05-.65-.99-1.3-1.99-2.06-2.9Z" fill="#514dff"/><path d="M64.66,15.46c-.22-.82-.41-1.72-.71-2.54-.16.12.09,1.17.71,2.54Z" fill="#514dff"/><path d="M36.68,141.11l.47-.19c0-.24-.03-.54-.04-.8-.14.3-.28.59-.43.99Z" fill="#514dff"/><path d="M40.04,134.45c-.98,1.49-1.96,2.98-2.98,4.44.06.46.05.82.06,1.23,1.45-3.11,2.31-1.61,2.92-5.67Z" fill="#514dff"/><path d="M38,140.6l-.84.32c-.17,4.61-3.32,5.6-4.75,11.78,2.81-3.92,4.54-8.44,5.59-12.11Z" fill="#514dff"/><path d="M37.87,145.99l.28,1.97c-.7,1.45-1.35,1.09-1.66.91l-.79,3.23c.45.87,1.6-1.1,2.77-3.59,1.12-2.51,2.26-5.55,2.77-6.8l-3.36,4.27Z" fill="#514dff"/><path d="M38.78,180.25l.03-.14c-.02.05-.03.09-.05.15h.02Z" fill="#514dff"/><path d="M45.65,172.28l-2.2-1.31c-1.25,4.29-3.26,4.4-4.64,9.14l-.03.14c2.97-.72,3.77-5.38,6.87-7.97Z" fill="#514dff"/><path d="M44.31,129.42c-1.33,4.14-2.32,7.23-1.36,8.95l2.98-7.52c-1.97,2.61-.97-.5-1.62-1.43Z" fill="#514dff"/><path d="M50.79,124.26l-.94,3.75,1.24-1.41c-.28-.24-.44-1-.3-2.34Z" fill="#514dff"/><path d="M51.09,126.59c.33.26.83-.17,1.34-1.53l-1.34,1.53Z" fill="#514dff"/><path d="M50.8,134.55c2.29-1.87.38-2.25,1.98-6.29-1.61-.81-1.29,4.2-1.98,6.29Z" fill="#514dff"/><polygon points="56.56 117.43 58.16 116.39 56.51 115.6 56.56 117.43" fill="#514dff"/><path d="M56.48,84.33c.71,4.35,2.11-2.03,3.08-2.23l-3.08,2.23Z" fill="#514dff"/><path d="M61.68,113.83l-1.94.9.68.92c-.3,1.07-.58,2.76-1.54,3.5,1.66,1.4,1.87-3.34,2.8-5.32Z" fill="#514dff"/><line x1="61.58" y1="96.44" x2="63.62" y2="92.59" fill="#514dff"/><path d="M64.84,125.1c.66.33,4.56-5.17,1.97,1.59.99-2.61,1.9-6.48,2.6-3.67,1.21-4.34-1.65-.8-1.72-3.91.39,2.65-1.87,4.01-2.86,5.99Z" fill="#514dff"/><path d="M69.23,114.94c.95-2,2.17-4.5,1.78-5.89-.55,2.18-2.47,3.73-1.78,5.89Z" fill="#514dff"/><polygon points="73.8 114.01 71.56 116.66 73.83 115.26 73.8 114.01" fill="#514dff"/><line x1="71.05" y1="68.53" x2="68.72" y2="68.24" fill="#514dff"/><path d="M76.91,101.35l-1.64,7.82,2.68-6.75c-.09-4.51-1.13-2.57-2.44.31.45-.77.92-1.34,1.4-1.38Z" fill="#514dff"/><path d="M71.99,108.89l.1,2.49c.39.18,1.22-3.3,2.3-6.21-.88,1.91-1.76,3.61-2.41,3.73Z" fill="#514dff"/><path d="M74.39,105.16c.37-.82.75-1.65,1.11-2.44-.39.68-.77,1.51-1.11,2.44Z" fill="#514dff"/><path d="M72.44,49.63c-.24,2.33-.56,4.65-.96,6.97.91-2.54,1.15-4.73.96-6.97Z" fill="#514dff"/><path d="M80.21,96.09l.26-1.11-1.69-.71c-.19,2.34,1.08,1.68,1.42,1.82Z" fill="#514dff"/><path d="M85.54,87.38c1.5-1.82,1.2-6.2,1.35-7.95-1.75,2.32-2.23,5.17-3.29,8.37,1.07-3.19,1.27-.7,1.94-.42Z" fill="#514dff"/><path d="M89.72,78.14c-.43,2.25-.92,4.49-1.42,6.73,2.23-.92,1.05-3.85,1.42-6.73Z" fill="#514dff"/><path d="M90.97,67.07c-.07-.66-.69-.26-.82-1.57-.9.92-.97,3.36-1.48,4.97.78-1.1,1.53-2.25,2.3-3.4Z" fill="#514dff"/><path d="M60.86,120.1c.47-1.97.84-3.73,1.2-5.43-1.09,2.53-2.17,5.05-3.25,7.57.74-.68,1.49-1.33,2.05-2.14Z" fill="#514dff"/><path d="M86.88,205.93c-1.86-1.06-3.74-2.66-5.65-4.53-1.91-1.87-3.91-3.96-5.77-6.18-3.55-4.54-7.06-9.19-9.26-12.71-3.37-5.93-7.61-12.32-11.92-19.12-2.03-3.45-4.3-6.9-6.23-10.53-1.88-3.64-3.86-7.28-5.4-11.03l.72-.12c-3.56-12.1-9.73-27.31-12.41-41.03l-.8.94c.31,2.33.89,5.37-.73,3.84-.2-3.18-.58-7.41-.04-8.45-.63-.7-1.22-1.42-1.79-2.14.46-2.12,3.87-.99,2.1-6.28-1.86-1.39-1.87-4.54-1.56-7.3.23-2.76.41-5.1-1.67-5.01,1.12-1.21,1.01-3.05.6-4.94-.34-1.89-.93-3.84-.94-5.21l-1.79,1.97c.72-5.81,3.22-11.26,2.81-13.86-.21-3.37-.22-7.25.03-10.98.25-3.74.8-7.29,1.42-10.34,1.27-.25.72,1.21.37,2.44-.35,1.25-.58,2.16,1.04.59-.1-1.52.08-3.02.48-4.5.39-1.53.96-2.72,1.78-4.04,1.62-2.53,4.12-4.73,6.72-5.96,1.29-.63,2.58-1.05,3.77-1.27,1.2-.21,2.27-.21,3.26-.13,1,.08,1.94.24,2.95.54,1.01.29,2.11.59,3.3,1.1-.13-.3-.79-.99-.05-.91.41,1.22,1.3,1.94,2.43,2.84,1.09.94,2.38,2.19,3,4.09.47-.61.03-2.09-.84-3.44-.85-1.37-2.05-2.61-2.67-3.19,1.56-1.09,1.65-.67,1.83.21.21.9.44,2.25,2.44,3.93-.05-.41-.2-1.24.1-1.41,1.95,1.88,1.69,2.75,1.42,3.32-.33.63-.68,1.06.44,2.68.06-.82.02-1.64-.01-2.49.95,1.76,1.11,2.03,1.52,2.27.38.26.93.51,2.04,2.6-1.04-.02-1.74.62-2.18,1.35-.48.8-.63,1.7-.64,2.32.49.16.81,1.37,1.15,2.48.33,1.11.73,2.11,1.6,1.72-1.66,3.22-1.42,5.1-1.18,7.13.23,2,.43,4.06-1.79,7.01,1.24,2.95,2.15-2.46,3.53-2.09.38,6.92-2.25,1.94-3.12,4.29.2,1.11.16,3.91-.29,6.99-.45,3.09-1.27,6.4-2.37,8.26l1.37.52c-2.64,5.88-5.1,15.87-7.62,17.71,1.5,2.96,2.53-1.85,3.46-6.09,1.26-.65.99,3.88.12,5.84.25-1.05,1.22-1.23.8-2.57,1.31-.04-.13,2.87-.05,4.07-2.11,7.27-.2-3.01-1.64-.12-.1,2.86-2,9.66.47,7.22-1.34,5.89-2.53,1.83-4.01,4.68,2.39-4.22.03-6.43,2.41-9.47-.42-1.34-1.05-1.02-1.93.33-.65,4.96-4.47,13.78-2.53,14.08l-1.89,2.08.74,2.7-.63.89c2.54-1.76,4.74-6.08,6.92-7.46.98-.15-.19,2.88-.49,4.54l-1.93.88c-1.52,4.04,2.12,3.97-.09,9.52-1.05-4.1-4.8,5.46-7.43,8.92,2.25,5.37,2.94.29,4.86,4.91-1.3,4.19-2.49,10.94-5.22,15.61,3.91-12.01-4.37,4.98-2.47-5.03-1.03,1.89-1.06,3.7-1.81,5.75-3.29.62-1.15-3.7-4.18-1.71l1.57,1.48c-2.41,2.35-5,3.32-7.58,8.58.6.96.73,4.12-.71,6.37-1.65.26-2.28.49-4.32,5.47-.11,5.54,2,3.58,4.65.1,2.68-3.47,5.7-8.52,7.71-8.92,3-6.97,6.63-9.88,10.5-13.25,3.86-3.38,8.01-7.22,11.67-16.15-.3-3.24-.97-2.35-.03-7.99-2-4.64-4.8,7.37-7.84,10.09.02-1.83.04-3.64,1.03-4.98l-2.63,1.11c1.61-8.87,4.55-3.78,5.8-11.64v1.82c.23-1.51.41-3.03.58-4.55l-.63.9c.58-2.74-.77-3.96,1.08-7.88l.44,3.79c-.41-2.58,2.24-2.56,2.42-6.07.36,2.06,1.21,2.87.95,4.03,2.25-4.69,3.55-9.08,4.82-13.34.55-3.77,1.25-7.47,1.99-11.13.69-3.67,1.52-7.29,2.37-10.89,1.62-7.22,3.72-14.25,5.42-21.45-.38.59-.75,1.31-.93,1.66-.21-2.65.77-4.19,1.83-5.69.56-2.73,1.03-5.52,1.34-8.36-.27-3.08-.75-5.85-1.42-8.74-.68-2.88-1.53-5.96-3.03-9.53.82-.77,1.4-.48,1.86.4-1.37-2.57-2.49-3.85-2.29-.9-2.35-4.1-2.74-6.43-5.04-9.28,2.31,1.65,4.4,3.62,6.34,5.82-1.22-3.54-3.01-2.19-5.39-6.36-2.8-2.61-2.56-1.58-1.85-.04.69,1.59,1.55,3.86.62,3.99-.49-.8-1.07-1.53-1.61-2.3.08,1.27.19,2.43.13,3.65-3.02-4.89-4.42-8.07-6.06-10.68,1.2,1.04,2.27,2.18,3.26,3.35,1.46-.38.07-1.77-2.02-3.12-2.05-1.42-4.86-2.4-5.62-3.5l.68.1c-3.59-1.38-3.32-.81-2.73-.29.58.57,1.35,1.25-1.03.66-2.62-1.4-5.64-2.38-8.84-2.76.59.5,1.15.99,1.68,1.51-2.54.6-6.26.83-10.34,2.14-4.08,1.21-8.36,3.53-11.56,6.52-1.85,1.66-3.51,4.09-4.82,6.85-1.34,2.77-2.26,5.79-3.13,8.67.71-.95,1.96-2.9,2.18-2.05-.71,1.6-1.61,4.22-2.34,6.09-.7,1.87-1.39,3-1.94,1.47.06,1.74.19,3.46.38,5.14-.22,1.73-.67,3.08-1.15,4.15l.89-1.24c-.03,1.97.05,3.92.14,5.86-.35-.09-1.21,2.02-1.2-.88-1.15,3.21-.76,6.93-.12,10.97.71,4.05,1.65,8.47,1.44,13.47l-.99-2.91c.78,2.9.55,4.53.32,6.24-.25,1.71-.51,3.5.38,6.64l1.14-1.57c.94,4.53.8,13.31-.48,12.18,3.29.13-.55,2.77,2.66,5.09-.84,1.1-1.58,2.18-2.37,3.29,1.41,2.79,2.46,5.56,3.53,3.34-.19,2.42-.16,4.6.21,6.43.4,1.83,1.25,3.3,2.49,4.36.04,0,.07.05.1.1l.09.08h-.05c.48.95,1.06,5.5,1.89,3.21,1.23,5.17,1,6.7.73,8.17-.27,1.48-.53,2.89,1.01,7.76l2.18-.25c1.93,7.54,6.17,14.17,9.67,19.01l-1.4,1.39c1.92,3.53,1.4-1.39,4.09,4.18.03.93-.14,1.85-.66,1.91,1.32,2.72,2.57,6,3.95,9.66,1.42,3.64,3.2,7.54,5.18,11.65-.35.11-1.19-.79-1.62-1.24,1.8,3.53,5.8,8.53,8.58,12.2,2.78,10.52,9.59,24.63,19.13,35.27,5.2,2.81,9.99,4.56,13.92,5.32,3.99.7,7.28.29,9.47-1.12.31-2.1-.76-5.55-2.46-10.13-.88-2.27-1.99-4.75-3.26-7.4-1.17-2.74-2.51-5.65-4-8.65Z" fill="#514dff"/><g clip-path="url(#b)"><path d="M47.7,115.27c-.52-1.54-4.36-1.55-4.08-3.58.18-1.3,2.31-2.99,3.1-4.43,1.98-3.58,4.24-8.73,6.51-12.01,6.94-10.03,36.03-19.87,48.21-22.59,11.58-2.58,22.78-.38,34.5-.85,3.78,1.65,5.57,3.83,1.86,6.83-4.18-3.82-5.79-.77-9.1.37-11.92,4.12-20.46,6.38-30.63,14.94-9.83,8.27-19.5,17.39-29.2,25.99-5.33,4.73-6.89,6.56-13.78,3.84-2.61-1.03-5.98-2.67-7.53-5.11-.93-1.46.29-2.94.14-3.41ZM52.19,117l5.78,3.45,1.17-1.42c.04-.46-3.7,1.1-3.72-3.12-.01-2.46,2.24-2.05,1.81-4.29l-5.04,5.37ZM51.44,107.66l2.38.41,5.96-6.83c-4.17-2.26-5.69,4.36-8.34,6.42ZM61.12,111.05c.21,1.65,1.06.72,1.82.08,5.27-4.44,11.28-7.99,16.47-12.54-3.17-2.2-5.2,2.19-7.26,3.72s-11.27,6.81-11.02,8.74ZM75.67,84.8c0,1.66-9.45,1.69-8.14,5.62l9.11-4.36.66-3.74-4.26,2.18,2.62.3ZM112.83,73.25c-3.85.36-9.28,1.64-12.77,3.31,4.99.86,9.29-2.05,14.19-1.96,1.63-1.22-1.02-1.39-1.42-1.35Z" fill="#514dff"/><path d="M63.27,54.34c13.07-2.12,24.32-4.39,37.67-5.37,1.4-.1,4.46-1.55,5.37-1.36,1.37.28,2.65,1.89,4.38,2.49,2.74.97,7.68.27,9.49,1.08,2.65,1.19-3.59,2.65-3.61,3.67,2.82,1.83,8.08,1.35,10.94,2.74,2.59,1.26,3.22,4.52,6.41,5.23-1.94,3.45-4.93.16-7.02.32-7.17.53-14.8.4-22.29,1.91-6.22,1.25-17.79,3.97-23.51,6.11-9.22,3.45-18.63,11.36-29.54,9.01-9.03-1.94-12.05-9.74-6.61-17.14,3.28-4.46,12.87-7.81,18.33-8.7ZM46.41,71.54c.23,2.4,3.91-2.05,4.74-2.56,1.91-1.16,4.26-1.7,6.31-2.52l-7.57.08c-1.66.03-3.58,3.98-3.48,5Z" fill="#514dff"/><path d="M120.24,93.69c-3.11,3.06-7.49,4.81-10.07,8.39-.98,1.35-2.29,2.57-.41,3.95,4.3-2.56,8.73-5.1,11.68-9.33l-1.59-1.41c-.08-.58,9.01-5.03,10.25-5.49,2.1-.77,6.17-.88,7.72-1.73,1.87-1.02.71-3.7,4.89-.4.2,1.61-9.16,8.73-10.88,10.56-11.24,11.94-8.75,28.81-18.52,41.17-1.92,2.43-12.04,10.09-14.8,11.08-3.14,1.12-9.11-2.44-11.26-4.78-7.1-7.74-2.93-15.93,1.6-23.62,4.09-6.94,21.43-24.98,28.56-27.89.88-.36,1.83-1.12,2.82-.52ZM89.75,142.12c1.04.45,3.77,4.47,4.6,2.5,0-2.99,3.25-6.14,3.41-8.9.29-4.81-4.72-4.08-1.44.99l-6.57,5.4ZM92.85,122.56c-.41,1.25-5.64,12.39-2.65,12.21,1.58-3.43,1.09-7.63,4.02-10.42l-1.36-1.79ZM116.62,119.58c-2.02,2.69-5.08,6.75-3.87,10.22,1.81-1.8,2.97-3.98,3.88-6.32.44-1.14,1.66-3.14-.01-3.9Z" fill="#514dff"/><path d="M61.72,28.84c2.64-.6,13.96-1.36,16.38-.73,2.16.55,3.8,2.52,4.93,2.64.78.08,1.6-1.14,2.23-1.2,7.12-.68,11.41.42,18.17,1.94,4.93,1.1,7.29-.21,10.57,4.78-1.33,2.91-6.5-.9-3.1,3.64-1.71.49-3.08-.89-4.54-1.05-1.94-.21-3.49,1.28-4.82,1.37-11.07.77-17.47,2.94-27.81,4.8-3.41.61-10.85,1.45-13.62-.43-7.3-4.95-8.49-13.46,1.6-15.75Z" fill="#514dff"/></g></svg>